<?xml version="1.0" encoding="utf-8"?>
<!-- Generator: Adobe Illustrator 19.0.0, SVG Export Plug-In . SVG Version: 6.00 Build 0)  -->
<svg version="1.1" id="图层_1" xmlns="http://www.w3.org/2000/svg" xmlns:xlink="http://www.w3.org/1999/xlink" x="0px" y="0px"
	 viewBox="0 0 1024 1024" style="enable-background:new 0 0 1024 1024;" xml:space="preserve">
<path d="M806.7,293.3c-0.4,0.9-0.9,1.3-1.3,2.2c-29.8,1.8-59.2,3.6-89,6.2c-12.9,1.3-25.4,21.8-23.1,35.1
	c3.6,20.5-16.9,62.7-36,68.5c-9.3,2.7-21.8-0.4-32-3.6c-11.6-3.6-22.2-10.2-35.6-16.9c0,6.2-1.8,12,0.4,14.7
	c22.2,25.8,7.6,52.5,2.2,78.3c-0.9,4.4-11.6,7.1-22.2,12.9c2.7,6.2,5.3,15.6,10.2,24c12.5,22.7,24.5,45.8,38.7,67.6
	c21.8,33.8,20,69.4,13.8,106.7c-3.1,19.6-3.1,40-4,60.5c-0.9,20.9,11.6,39.6,31.1,47.6c4,1.8,8.5,3.1,11.6,5.8
	c2.7,2.7,5.8,7.6,4.9,10.7c-0.4,2.7-5.8,6.7-9.3,6.7c-12.5,0.4-24.9,0.4-36.9-0.4c-12.9-0.9-25.4-3.1-38.3-4.4
	c-9.8-0.9-14.7-5.8-11.1-14.2c12.5-32,4.4-62.7-2.2-94.3c-3.6-16,0.9-33.8,2.2-50.7c0.9-12.5,4.4-25.8-15.6-25.8
	c-3.1,0-7.1-2.7-9.3-5.3c-16-20-32-40.5-47.6-60.5c-2.7,0.4-4.9,0.4-7.6,0.9c-8,16.9-16,33.4-24,50.3c-5.8,12-8.5,26.2-17.3,35.1
	c-21.8,22.7-13.8,55.6-31.6,79.6c-6.2,8-10.7,17.3-16,25.8c-10.7,17.3-14.2,36-8,55.2c4.9,16-0.9,19.6-15.1,20.5
	c-30.7,1.8-35.6-4.9-28.5-35.1c4.9-20,8-40,9.8-60.9c2.2-25.8,16-51.1,27.6-75.2c7.6-15.6,14.7-29.4,15.1-48
	c0.9-28.5-0.9-58.3,3.6-85c4.4-24.5,2.2-47.6,3.6-71.2c0.4-4.9,4.4-9.3,8-16.5c-15.6,0.4-16.5-8.9-14.2-20.9
	c1.8-9.8,3.1-19.6,3.1-29.4c0-12,1.8-20.5,16.9-20c3.1,0,8-8.5,8.9-13.8c3.6-19.1,3.1-39.6,9.8-57.8c10.2-28.5,28.9-36.9,57.4-31.6
	c0.9-13.8,0-28,3.1-41.4c6.2-23.1,28.9-36.5,51.6-32.9c24.9,4.4,42.3,24,40.5,48.5c-0.4,5.8-5.3,11.1-8.5,16.9
	c-2.2,4.9-4.4,9.8-6.7,14.7c4.9,1.3,10.2,4.4,14.2,3.6c7.6-1.8,14.2-6.7,18.7-8.9c10.2,2.7,19.6,7.1,28.9,7.1
	c40,0.9,80.1,0.4,121,0.4c0-0.9,2.7-1.8,4-1.8s2.7,0,3.6-0.4c3.1,10.2,8.9,16.5,21.8,15.6c1.3,0,2.7,0,4,0c0,0.4,0.4,1.3,0.9,1.8
	C806.3,289.8,806.3,291.5,806.7,293.3z M846.5,183.8c-171.6,0-287.8-100.1-293.3-100.1c-4.5-4.5-10-8.1-15.9-10.8
	c-7.2-4.3-15.7-6.8-24.7-6.9v0h-1.3v0c-8.9,0.1-17.3,2.6-24.5,6.9c-6,2.7-11.4,6.3-15.9,10.8c-5.5,0-121.8,100.1-293.3,100.1
	c-27.7,0-55.3,22.3-49.8,50.1v311.5c0,127.9,193.7,411.6,381.9,411.6c0.8,0,1.5,0,2.3,0v-1h0.2v1c0.8,0,1.5,0,2.3,0
	c188.2,0,381.9-283.7,381.9-411.6V233.9C901.8,206.1,874.1,183.8,846.5,183.8z" fill="white"/>
</svg>