<?xml version="1.0" encoding="utf-8"?>
<!-- Generator: Adobe Illustrator 19.0.0, SVG Export Plug-In . SVG Version: 6.00 Build 0)  -->
<svg version="1.1" id="图层_1" xmlns="http://www.w3.org/2000/svg" xmlns:xlink="http://www.w3.org/1999/xlink" x="0px" y="0px"
	 viewBox="0 0 1024 1024" style="enable-background:new 0 0 1024 1024;" xml:space="preserve">
<path d="M900.6,285.9c14.2,0,25.9-11.7,25.9-25.9V122.9c0-14.2-11.7-25.9-25.9-25.9H763.4c-14.2,0-25.9,11.7-25.9,25.9v42.5h-84
	c-2.4-0.5-5.4-0.5-7.8,0H285.9v-42.5c0-14.2-11.7-25.9-25.9-25.9H122.9C108.7,97,97,108.7,97,122.9v137.2
	c0,14.2,11.7,25.9,25.9,25.9h42.5v452.1h-42.5c-14.2,0-25.9,11.7-25.9,25.9v137.2c0,14.2,11.7,25.9,25.9,25.9h137.2
	c14.2,0,25.9-11.7,25.9-25.9v-42.5h452.1v42.5c0,14.2,11.7,25.9,25.9,25.9h137.2c14.2,0,25.9-11.7,25.9-25.9V763.9
	c0-14.2-11.7-25.9-25.9-25.9h-42.5V374.3c0-1,0-2,0-2.4v-85.4h42V285.9z M789.8,148.8h85.4v85h-85.4V148.8z M217.1,468.1
	c1.5-1,2.9-2,4.4-3.4L469,217.1h117.7L217.1,586.7V468.1z M148.8,148.8h85.4v41.5c0,0.5,0,0.5,0,1c0,0.5,0,0.5,0,1v41.5h-85.4V148.8
	z M259.6,285.9c14.2,0,25.9-11.7,25.9-25.9v-42.5h109.9L217.1,395.8V285.9H259.6z M217.1,660.4l442.8-442.8h77.6v31.7L248.8,738.1
	h-31.7V660.4z M148.8,875.2v-85h85.4v41.5c0,0.5,0,0.5,0,1c0,0.5,0,0.5,0,1v41.5H148.8L148.8,875.2z M806.4,552L557.9,800.5
	c-2,2-3.4,3.9-4.4,6.3H435.3l371.1-371.1V552z M874.8,875.2h-85.4v-85h85.4V875.2z M763.9,738.1c-14.2,0-25.9,11.7-25.9,25.9v42.5
	H625.3l181.1-181.1v112.8H763.9L763.9,738.1z M806.4,362.1L362.1,806.4h-76.2v-31.7l488.7-488.7h31.7V362.1z" fill="white"/>
</svg>
