<?xml version="1.0" encoding="utf-8"?>
<!-- Generator: Adobe Illustrator 19.0.0, SVG Export Plug-In . SVG Version: 6.00 Build 0)  -->
<svg version="1.1" id="图层_1" xmlns="http://www.w3.org/2000/svg" xmlns:xlink="http://www.w3.org/1999/xlink" x="0px" y="0px"
	 viewBox="0 0 1024 1024" style="enable-background:new 0 0 1024 1024;" xml:space="preserve">
<style type="text/css">
	.st0{fill-rule:evenodd;clip-rule:evenodd;}
</style>
<g>
	<path class="st0" d="M957,888.5H67v-69.2l68.5,0.8V135.5h410.8v684.6h68.5V477.8h273.8v342.3l68.5-0.8V888.5z M306.6,238.2H203.9
		v102.7h102.7V238.2z M306.6,409.3H203.9V512h102.7V409.3z M306.6,580.5H203.9v102.7h102.7V580.5z M477.8,238.2H375.1v102.7h102.7
		V238.2z M477.8,409.3H375.1V512h102.7V409.3z M477.8,580.5H375.1v102.7h102.7V580.5z M820.1,546.2H683.2v273.8h136.9V546.2z" fill ="white"/>
</g>
</svg>
