<?xml version="1.0" encoding="utf-8"?>
<!-- Generator: Adobe Illustrator 19.0.0, SVG Export Plug-In . SVG Version: 6.00 Build 0)  -->
<svg version="1.1" id="图层_1" xmlns="http://www.w3.org/2000/svg" xmlns:xlink="http://www.w3.org/1999/xlink" x="0px" y="0px"
	 viewBox="0 0 1024 1024" style="enable-background:new 0 0 1024 1024;" xml:space="preserve">
<path d="M581.1,512.3l362.2-362.4c18.3-18.3,18.3-48.5,0-66.8l-1.8-1.8C923.2,63,893,63,874.7,81.3L511.9,443.7l-362.2-363
	c-18.3-18.3-48.4-18.3-66.8,0l-1.8,1.8c-18.4,17.8-19,47.2-1.2,65.6c0.4,0.4,0.8,0.8,1.2,1.2l362.2,363L81.2,874.7
	c-18.3,18.3-18.3,48.5,0,66.8l1.8,1.8c18.3,18.3,48.5,18.3,66.8,0l362.2-362.4l362.2,362.4c18.3,18.3,48.5,18.3,66.8,0l1.8-1.8
	c18.3-18.3,18.3-48.5,0-66.8L581.1,512.3z"/>
</svg>
