<?xml version="1.0" encoding="utf-8"?>
<!-- Generator: Adobe Illustrator 19.0.0, SVG Export Plug-In . SVG Version: 6.00 Build 0)  -->
<svg version="1.1" id="图层_1" xmlns="http://www.w3.org/2000/svg" xmlns:xlink="http://www.w3.org/1999/xlink" x="0px" y="0px"
	 viewBox="0 0 1024 1024" style="enable-background:new 0 0 1024 1024;" xml:space="preserve">
<g>
	<path d="M183.7,568.5L173.1,558v-15.2v-68.5v-15.2l10.6-10.6l50.3-50.1l35.5-35.4c-8.8,1.8-18.4-0.5-24.9-6.9l-14.8-14.7L97,474.3
		l14.3,14.7c11.1,11,11.1,28.5,0,39.5L97,542.8l132.8,132.4l14.8-14.7c6.5-6.4,16.1-8.7,24.9-6.9L234,618.2L183.7,568.5z" fill="white"/>
	<path d="M367.7,263.8c0,0.5-0.5,1.4-0.5,1.8l33.7-33.5l50.7-50.6l10.6-10.6h15.2h68.7h15.2l10.6,10.6l50.7,50.6l33.7,33.5
		c0-0.5-0.5-1.4-0.5-1.8c0-7.4,2.8-14.2,8.3-19.8l14.8-14.7L546.1,97l-14.8,14.7c-10.6,10.6-29,10.6-39.7,0L477,97L344.2,229.4
		l14.8,14.7C364.4,249.6,367.7,256.5,367.7,263.8z" fill="white"/>
	<path d="M655.9,760.2c0-4.1,0.9-7.8,2.8-11.5l-38.3,38.1l-48.4,48.7l-10.6,10.6h-15.2h-68.7h-15.2l-10.6-10.6l-48.9-48.7
		l-38.3-38.1c1.8,3.7,2.8,7.4,2.8,11.5c0,7.4-2.8,14.2-8.3,19.8l-14.8,14.7L477,927l14.8-14.7c10.6-10.6,29.1-10.6,39.7,0l14.8,14.7
		l132.8-132.4l-14.8-14.7C659.1,774.9,655.9,768,655.9,760.2z" fill="white"/>
	<path d="M903.9,508.3c0-7.4,2.8-14.2,8.3-19.8l14.8-14.7L794.2,341.5l-14.8,14.7c-6.5,6.4-16.1,8.7-24.9,6.9l35.5,35.4l50.3,50.1
		l10.6,10.6v15.2v68.5V558l-10.6,10.6l-50.3,50.1L754.5,654c8.8-1.8,18.4,0.5,24.9,6.9l14.8,14.7L927,542.8l-14.8-14.7
		C907.2,523,903.9,516.1,903.9,508.3z" fill="white"/>
	<path d="M814,474.3l-71-70.8l-40.1-40l-45.2-45l-41.5-41.4l-70.1-69.9c-26.7,0-42,0-68.7,0l-70.6,70.3L365.4,319l-45.2,45
		l-39.7,39.5l-71,70.8c0,26.7,0,41.8,0,68.5l70.5,70.3l40.1,40l48.9,48.7l35,34.9l73.3,73.1c26.7,0,42,0,68.7,0l73.3-73.1l35-34.9
		l48.9-48.7l40.1-40l70.6-70.3C814,516.1,814,501,814,474.3z" fill="white"/>
</g>
</svg>
