<?xml version="1.0" encoding="utf-8"?>
<!-- Generator: Adobe Illustrator 19.0.0, SVG Export Plug-In . SVG Version: 6.00 Build 0)  -->
<svg version="1.1" id="图层_1" xmlns="http://www.w3.org/2000/svg" xmlns:xlink="http://www.w3.org/1999/xlink" x="0px" y="0px"
	 viewBox="0 0 1024 1024" style="enable-background:new 0 0 1024 1024;" xml:space="preserve">
<g>
	<path d="M67,918.1h232.1V105.9H67V918.1z M189.7,790.4c-27.1,0-49.1-22.3-49.1-49.7c0-27.5,22-49.7,49.1-49.7
		c27.1,0,49.1,22.3,49.1,49.7C238.8,768.1,216.8,790.4,189.7,790.4z M105.7,260.6h154.7V338H105.7V260.6z M105.7,415.3h154.7V454
		H105.7V415.3z M105.7,492.7h154.7v38.7H105.7V492.7z" fill ="#00a2ff"/>
	<path d="M337.7,918.1h232.1V105.9H337.7V918.1z M460.5,790.4c-27.1,0-49.1-22.3-49.1-49.7c0-27.5,22-49.7,49.1-49.7
		c27.1,0,49.1,22.3,49.1,49.7C509.5,768.1,487.6,790.4,460.5,790.4z M376.4,260.6h154.7V338H376.4V260.6z M376.4,415.3h154.7V454
		H376.4V415.3z M376.4,492.7h154.7v38.7H376.4V492.7z" fill ="#00a2ff"/>
	<polygon points="840,105.9 598.8,144 715.8,918.1 957,880 	" fill ="#00a2ff"/>
</g>
</svg>
