<?xml version="1.0" encoding="utf-8"?>
<!-- Generator: Adobe Illustrator 19.0.0, SVG Export Plug-In . SVG Version: 6.00 Build 0)  -->
<svg version="1.1" id="图层_1" xmlns="http://www.w3.org/2000/svg" xmlns:xlink="http://www.w3.org/1999/xlink" x="0px" y="0px"
	 viewBox="0 0 1024 1024" style="enable-background:new 0 0 1024 1024;" xml:space="preserve">
<g>
	<path d="M929.2,536.7c-1.7,0-3.5,0.1-5.2,0.4l-42.4,7.4c-13.6,2.5-23.4,14.5-23.2,28.4v77.7c0,15.7-12.6,28.4-28.2,28.4H776
		c-10,0-19.2-5.3-24.3-13.9l-18.1-31.2c-7.2-13.9-24.2-19.3-38.1-12.1c-0.3,0.2-0.6,0.3-0.9,0.5l-37.3,22.4
		c-13.4,8.1-17.7,25.5-9.6,38.9c0.3,0.5,0.6,0.9,0.9,1.3l44.9,67.5c5.3,7.8,14,12.5,23.4,12.5h113c15.6,0,28.2,12.7,28.2,28.4v91.6
		c0,12,7.6,22.7,18.9,26.7l42.4,15c14.7,5.2,30.8-2.6,36-17.4c1-3,1.6-6.1,1.6-9.3V565.5C957.2,549.8,944.8,536.9,929.2,536.7z" fill="white"/>
	<path d="M927.9,410.2v-76.6c0,0-553.2,358.9-652.6,427c-9.5,6.4-21.9,6.4-31.3,0c-12-10-29.8-8.3-39.8,3.8
		c-6.5,7.9-8.2,18.7-4.6,28.2c1.4,4.2,3.7,8,6.8,11.1c27.2,27.3,69.6,32.1,102.2,11.6l606-381C922.9,429.1,927.9,420,927.9,410.2z" fill="white"
		/>
	<path d="M320.5,689.9L896,319.1c32-20.7,41.5-63.5,21.2-95.9L846,109.8C817.5,65,758.3,52,713.8,80.7c-0.3,0.2-0.7,0.4-1,0.7
		L90.4,491c-24.1,16.2-30.7,48.9-14.6,73.2c3,4.5,6.7,8.5,10.9,11.9l138.6,109.2C252.9,707.1,291.1,708.9,320.5,689.9z" fill="white"/>
</g>
</svg>
