<?xml version="1.0" encoding="utf-8"?>
<!-- Generator: Adobe Illustrator 19.0.0, SVG Export Plug-In . SVG Version: 6.00 Build 0)  -->
<svg version="1.1" id="图层_1" xmlns="http://www.w3.org/2000/svg" xmlns:xlink="http://www.w3.org/1999/xlink" x="0px" y="0px"
	 viewBox="0 0 1024 1024" style="enable-background:new 0 0 1024 1024;" xml:space="preserve">
<g>
	<path d="M954.6,345.5c-6.2-14-22.7-20.4-36.7-14.1L787,386.5V262c0-33.1-26.9-60-60-60H127c-33.1,0-60,26.9-60,60v500
		c0,33.1,26.9,60,60,60h600c33.1,0,60-26.9,60-60V637.5l130.9,55.1c3.6,1.6,7.4,2.4,11.3,2.4c15.4,0,27.8-12.5,27.8-27.8V356.8
		C957,352.9,956.2,349.1,954.6,345.5z M427,707c-107.7,0-195-87.3-195-195s87.3-195,195-195s195,87.3,195,195S534.7,707,427,707z" fill="white"/>
	<path d="M517.2,494.6l-140.5-80.3c-9.6-5.5-21.9-2.2-27.4,7.5c-1.7,3-2.6,6.5-2.6,9.9v160.5c0,11.1,9,20.1,20.1,20.1
		c3.5,0,6.9-0.9,9.9-2.6l140.5-80.3c9.6-5.5,13-17.8,7.5-27.4C522.9,498.9,520.3,496.4,517.2,494.6z" fill="white"/>
</g>
<path d="M739.7,203.5c-1.7-0.2-3.4-0.3-5.2-0.3H122.6c-1.8,0-3.5,0.1-5.2,0.3H739.7z" fill="white"/>
<path d="M117.4,823.5c1.7,0.2,3.4,0.3,5.2,0.3h611.9h0c1.8,0,3.5-0.1,5.2-0.3H117.4z" fill="white"/>
</svg>
