<?xml version="1.0" encoding="utf-8"?>
<!-- Generator: Adobe Illustrator 19.0.0, SVG Export Plug-In . SVG Version: 6.00 Build 0)  -->
<svg version="1.1" id="图层_1" xmlns="http://www.w3.org/2000/svg" xmlns:xlink="http://www.w3.org/1999/xlink" x="0px" y="0px"
	 viewBox="0 0 1024 1024" style="enable-background:new 0 0 1024 1024;" xml:space="preserve">
<path d="M906.7,478.8c-13.5-13-31.2-19.6-48.9-19.6c-17.7,0-35.4,6.5-48.9,19.6L581.2,698.9v-535c0-36.9-31-66.8-69.2-66.8
	c-38.2,0-69.2,29.9-69.2,66.8v535L215.1,478.8c-27-26.1-70.8-26.1-97.8,0c-27,26.1-27,68.4,0,94.5l345.8,334.1
	c27,26.1,70.8,26.1,97.8,0l345.8-334.1C933.8,547.2,933.8,504.9,906.7,478.8z" fill="white"/>
</svg>
