<?xml version="1.0" encoding="utf-8"?>
<!-- Generator: Adobe Illustrator 19.0.0, SVG Export Plug-In . SVG Version: 6.00 Build 0)  -->
<svg version="1.1" id="图层_1" xmlns="http://www.w3.org/2000/svg" xmlns:xlink="http://www.w3.org/1999/xlink" x="0px" y="0px"
	 viewBox="0 0 1024 1024" style="enable-background:new 0 0 1024 1024;" xml:space="preserve">
<path d="M693.5,730.1l-29.7-10.9c-17.8-7.4-35.1-16.8-52.9-22.3c-3.3-1-21.7-9.2-20.1-39.3c31-16.7,63.1-42.3,84.8-77.9
	c11.4-1.5,22.7-3.5,25.2-4.9c86-26.7,142.4-97.4,142.4-147.8c0-83.6-102.4-118.2-102.8-118.2c0-114.2-75.6-209.6-177-234.4h-1.2
	c-16.5-4.9-34-7.4-52.2-7.4c-20.1,0-39.6,3.4-57.7,9.5c-97.4,27.6-169.2,121-169.2,232.3c0,0-102.4,30.2-102.4,118.2
	c0,50.4,56.4,121.1,142.4,147.8c10.4,4,19.3,6.4,26.7,7.4c22.4,35.3,55.2,60.6,86.5,76.9c-0.8,25.8-20.6,36.2-25.7,38.3
	c-8.9,3.5-16.3,6.9-23.7,10.4L334,731.5c0-0.5-0.5-1-0.5-1c-65.3,33.1-121.1,76.1-121.1,119.2V872c0,46,120.6,85,120.6,85l19.3-2.5
	l29.7-3.5l10.9-0.5c0,0,0-0.5,0-1l21.8-2.5c28.2-3,68.7-6.4,98.9-6.4c38.6,0,94.4,5.9,118.7,8.4l2,1.5h8.4c1,0,2,0,2,0l50.4,6.4
	c0,0,120.6-39.6,120.6-85.5v-22.3C814.6,805.2,759.7,762.7,693.5,730.1z M460.1,142.2h103.3c0,0,0,26.2,0,51.9
	c0,19.8-29.2,39.1-43.5,47.5c-2.5,0.5-4.9,0.5-7.9,0.5c-3,0-5.4-0.5-8.4-0.5c-14.3-8.9-43.5-28.2-43.5-47.5
	C460.1,167.9,460.1,142.2,460.1,142.2z M372.1,514c-2.5-9.9-12.4-17.3-22.7-18.3c-10.4-1-47-26.7-47-50.4c0-25.7,11.9-43,23.2-43
	c12.4,0,22.7-9.4,23.2-21.8c0.5-10.4,2-20.3,3.5-29.7c41-20.3,97.4-32.6,159.7-32.6s118.7,12.4,159.7,32.6c1.5,9.4,3,19.3,3.5,29.7
	c0.5,12.9,10.9,22.3,23.2,22.3c9.4,0,23.2,17.3,23.2,43c0,23.7-33.1,50.4-46.5,50.4c-10.9,0-20.3,7.4-22.7,18.3
	C634.1,599,539.7,635.6,512.5,635.1C484.8,635.1,389.9,599,372.1,514z M490.7,830.9c-71.7,3.5-138.4,23.2-193.8,54.9l-37.6-30.7
	c65.3-40.5,144.9-66.3,231.4-70.2V830.9z M729.6,885.3c-55.4-31.1-121.6-50.9-193.3-54.4v-45.5c86.5,4,165.6,29.2,230.9,69.7
	L729.6,885.3z" fill="#797979"/>
</svg>
