<?xml version="1.0" encoding="utf-8"?>
<!-- Generator: Adobe Illustrator 19.0.0, SVG Export Plug-In . SVG Version: 6.00 Build 0)  -->
<svg version="1.1" id="图层_1" xmlns="http://www.w3.org/2000/svg" xmlns:xlink="http://www.w3.org/1999/xlink" x="0px" y="0px"
	 viewBox="0 0 1024 1024" style="enable-background:new 0 0 1024 1024;" xml:space="preserve">
<g>
	<g>
		<path d="M875.1,771.4V460.1l25.9-51.9H745.4v0l25.9,51.9v311.3H875.1z M667.6,771.4V460.1l25.9-51.9H537.9v0l25.9,51.9v311.3
			H667.6z M460.1,771.4V460.1l25.9-51.9H330.4v0l25.9,51.9v311.3H460.1z M252.6,771.4V460.1l25.9-51.9H122.9v0l25.9,51.9v311.3
			H252.6z M111.2,823.2L97,927h830l-14.2-103.8H111.2z M512,97L97,356.4h830L512,97z M512,304.5c-28.6,0-51.9-23.2-51.9-51.9
			c0-28.6,23.2-51.9,51.9-51.9c28.7,0,51.9,23.2,51.9,51.9C563.9,281.3,540.6,304.5,512,304.5z" fill="white"/>
	</g>
</g>
</svg>
