<?xml version="1.0" encoding="utf-8"?>
<!-- Generator: Adobe Illustrator 19.0.0, SVG Export Plug-In . SVG Version: 6.00 Build 0)  -->
<svg version="1.1" id="图层_1" xmlns="http://www.w3.org/2000/svg" xmlns:xlink="http://www.w3.org/1999/xlink" x="0px" y="0px"
	 viewBox="0 0 1024 1024" style="enable-background:new 0 0 1024 1024;" xml:space="preserve">
<path d="M512,67C266.5,67,67,266.5,67,512s199.5,445,445,445s445-199.5,445-445S758.1,67,512,67z M512,904.6
	c-216.7,0-392.6-175.9-392.6-392.6S295.3,119.4,512,119.4S904.6,295.3,904.6,512S728.7,904.6,512,904.6z" fill="white"/>
<path d="M286.9,737.1l309.4-140.8l140.8-309.4L427.7,427.7L286.9,737.1z M568.5,568.5L343.4,681.1L456,456L568.5,568.5z" fill="white"/>
</svg>
