<?xml version="1.0" encoding="utf-8"?>
<!-- Generator: Adobe Illustrator 19.0.0, SVG Export Plug-In . SVG Version: 6.00 Build 0)  -->
<svg version="1.1" id="图层_1" xmlns="http://www.w3.org/2000/svg" xmlns:xlink="http://www.w3.org/1999/xlink" x="0px" y="0px"
	 viewBox="0 0 1024 1024" style="enable-background:new 0 0 1024 1024;" xml:space="preserve">
<g>
	<path d="M674.1,281.5C592.4,281.5,526,348,526,429.7c0,81.7,66.5,148.2,148.2,148.2s148.2-66.5,148.2-148.2
		C822.3,348,755.9,281.5,674.1,281.5z" fill ="white"/>
	<path d="M897.7,67H126.3C93.6,67,67,93.6,67,126.3v771.3c0,32.8,26.6,59.3,59.3,59.3h771.3c32.8,0,59.3-26.6,59.3-59.3V126.3
		C957,93.6,930.4,67,897.7,67z M179.6,215.5h168.6c17.1,0,31,20,31,37.1c0,17.1-13.9,37.1-31,37.1H179.6c-17.1,0-31-20-31-37.1
		C148.6,235.5,162.5,215.5,179.6,215.5z M379.1,474.9c0,17.1-13.9,37.1-31,37.1H179.6c-17.1,0-31-20-31-37.1
		c0-17.1,13.9-37.1,31-37.1h168.6C365.3,437.8,379.1,457.8,379.1,474.9z M474.6,734.5h-295c-17.1,0-31-20-31-37.1
		c0-17.1,13.9-37.1,31-37.1h295c17.1,0,31,20,31,37.1C505.6,714.5,491.7,734.5,474.6,734.5z M734.5,629.5v3.5v20.3v148.3
		c0,17.1-20,31-37.1,31c-17.1,0-37.1-13.9-37.1-31V637.5c-111.2-15.1-190-102.9-190-207.8c0-115.8,88.8-210.1,204.7-210.1
		c115.8,0,203,94.3,203,210.1C878,522.8,839.3,602.3,734.5,629.5z" fill ="white"/>
</g>
</svg>
