<?xml version="1.0" encoding="utf-8"?>
<!-- Generator: Adobe Illustrator 19.0.0, SVG Export Plug-In . SVG Version: 6.00 Build 0)  -->
<svg version="1.1" id="图层_1" xmlns="http://www.w3.org/2000/svg" xmlns:xlink="http://www.w3.org/1999/xlink" x="0px" y="0px"
	 viewBox="0 0 1024 1024" style="enable-background:new 0 0 1024 1024;" xml:space="preserve">
<g>
	<path d="M821.9,609.8c32.5-55.1,49.6-118.3,49.6-182.6c0-48.8-9.5-95.9-28.2-140.3c-18.1-42.9-44-81.4-77.1-114.5
		c-33-33-71.4-59-114.3-77.2C607.7,76.6,560.6,67,512,67s-95.6,9.6-139.9,28.3c-42.8,18.2-81.2,44.1-114.3,77.2
		c-33,33-58.9,71.5-77.1,114.5c-18.7,44.4-28.3,91.5-28.3,140.1c0,48.6,9.5,95.8,28.3,140.1c18.1,42.9,44,81.4,77.1,114.5
		c33,33,71.4,59,114.3,77.2c10.5,4.4,21.2,8.3,32,11.8l-49.6,123.1H239.8c-17.4,0-31.6,14.2-31.6,31.6c0,17.5,14.1,31.6,31.6,31.6
		h544.5c17.4,0,31.6-14.2,31.6-31.6c0-17.5-14.1-31.6-31.6-31.6H675.2L626,768.7c22.8-7.6,44.9-17.6,65.8-29.6
		C745.4,707.9,790.4,663.2,821.9,609.8z M513.3,126.9c24.8,0,45,20.3,45,45.1s-20.2,45.1-45,45.1c-24.8,0-45-20.2-45-45.1
		S488.4,126.9,513.3,126.9z M512.1,691c-111.2,0-201.8-90.7-201.8-202.1c0-111.4,90.5-202.1,201.8-202.1
		c111.3,0,201.8,90.7,201.8,202.1C713.9,600.3,623.4,691,512.1,691z M512,359c-71.5,0-129.7,58.2-129.7,129.9S440.5,618.9,512,618.9
		c71.5,0,129.7-58.2,129.7-129.9S583.5,359,512,359z" fill ="white"/>
</g>
</svg>
