<?xml version="1.0" encoding="utf-8"?>
<!-- Generator: Adobe Illustrator 19.0.0, SVG Export Plug-In . SVG Version: 6.00 Build 0)  -->
<svg version="1.1" id="图层_1" xmlns="http://www.w3.org/2000/svg" xmlns:xlink="http://www.w3.org/1999/xlink" x="0px" y="0px"
	 viewBox="0 0 1024 1024" style="enable-background:new 0 0 1024 1024;" xml:space="preserve">
<g>
	<path d="M561.5,679.7L507,625.1c-48.2-2.6-87-41-89.6-89.8l-55-55.2c-5.2,15.8-8.4,32.6-8.4,50.4c0,87.2,70.2,157.6,157.2,157.6
		C528.5,688.1,545.8,685,561.5,679.7z" fill="white"/>
	<path d="M511.7,783.7c-87.5,0-171.3-26.3-242.5-76.2C205.3,662.9,155,602,123.6,531.1c28.3-64.1,71.8-119.8,126.8-162.8l-37.2-37.3
		c-65,52-115.8,121.3-146.2,200.1c69.1,178.6,242,305.7,444.7,305.7c61.3,0,119.4-11.6,173.4-32.6l-40.9-41.5
		C601.8,776.9,557.3,783.7,511.7,783.7z" fill="white"/>
	<path d="M957,530c-69.7-178.1-242.5-304.7-445.3-304.7c-70.7,0-137.8,15.5-198.3,43.2L219.2,174l-44.4,44.6L804.4,850l44.4-44.6
		l-59-59.2C864.5,692.4,923.3,617.3,957,530z M602,557.9L484.5,440.1c8.6-2.6,17.8-4.1,27.2-4.1c51.9,0,94.3,42.5,94.3,94.6
		C606,540.1,604.6,549.2,602,557.9z M754.8,707c-0.8,0.6-1.6,1.1-2.4,1.6L649.9,606c12.1-22.2,19-47.7,19-74.9
		c0-87.2-70.2-157.6-157.2-157.6c-27.1,0-52.5,6.9-74.7,19l-83.7-83.9c50-20.2,103.6-30.7,158.9-30.7c87.5,0,171.3,26.3,242.5,76.2
		c63.9,44.6,114.2,105.6,145.6,176.5C869,601.5,819.2,662.4,754.8,707z" fill="white"/>
</g>
</svg>
