<?xml version="1.0" encoding="utf-8"?>
<!-- Generator: Adobe Illustrator 19.0.0, SVG Export Plug-In . SVG Version: 6.00 Build 0)  -->
<svg version="1.1" id="图层_1" xmlns="http://www.w3.org/2000/svg" xmlns:xlink="http://www.w3.org/1999/xlink" x="0px" y="0px"
	 viewBox="0 0 1024 1024" style="enable-background:new 0 0 1024 1024;" xml:space="preserve">
<path d="M957,512c0-7.9-4.8-14.6-11.6-17.8l0.1-0.1l-131.6-61.6l131.6-61.6l-0.1-0.1c6.8-3.2,11.6-9.9,11.6-17.8
	c0-7.9-4.8-14.6-11.6-17.8l0.1-0.1L520.7,135.9l-0.1,0.1c-2.6-1.2-5.5-2.1-8.6-2.1c-3.1,0-6,0.8-8.6,2.1l-0.1-0.1L78.5,334.9
	l0.1,0.1c-6.8,3.2-11.6,9.9-11.6,17.8c0,7.9,4.8,14.6,11.6,17.8l-0.1,0.1l131.6,61.6L78.5,494l0.1,0.1C71.8,497.4,67,504.1,67,512
	c0,7.9,4.8,14.6,11.6,17.8l-0.1,0.1l131.6,61.6L78.5,653.2l0.1,0.1c-6.8,3.2-11.6,9.9-11.6,17.8c0,7.9,4.8,14.6,11.6,17.8l-0.1,0.1
	l424.8,198.9l0.1-0.1c2.6,1.2,5.5,2.1,8.6,2.1c3.1,0,6-0.8,8.6-2.1l0.1,0.1l424.8-198.9l-0.1-0.1c6.8-3.2,11.6-9.9,11.6-17.8
	c0-7.9-4.8-14.6-11.6-17.8l0.1-0.1l-131.5-61.6L945.5,530l-0.1-0.1C952.2,526.6,957,519.9,957,512z M889.7,671.2L512,848.1
	L134.3,671.2l122.9-57.5l246.2,115.3l0.1-0.1c2.6,1.2,5.5,2.1,8.6,2.1c3.1,0,6-0.8,8.6-2.1l0.1,0.1l246.2-115.3L889.7,671.2z
	 M512,688.9L134.3,512l122.9-57.5l246.2,115.3l0.1-0.1c2.6,1.2,5.5,2.1,8.6,2.1c3.1,0,6-0.8,8.6-2.1l0.1,0.1l246.2-115.3L889.7,512
	L512,688.9L512,688.9z" fill ="white"/>
</svg>
