<?xml version="1.0" encoding="utf-8"?>
<!-- Generator: Adobe Illustrator 19.0.0, SVG Export Plug-In . SVG Version: 6.00 Build 0)  -->
<svg version="1.1" id="图层_1" xmlns="http://www.w3.org/2000/svg" xmlns:xlink="http://www.w3.org/1999/xlink" x="0px" y="0px"
	 viewBox="99 215 890 120" style="enable-background:new 99 215 890 120;" xml:space="preserve">
<g>
	<g>
		<path d="M225.7,334.8V215.1h19.6v119.7H225.7z M193.9,334.8V215.1h19.6v119.7H193.9z M99,318.3l14.2-1.1v-57.7H99V243h14.2v-27.8
			h21.1V243h14.4v16.5h-14.4v56.1l13.2-1V331L99,334.8V318.3z M157.5,334.6l4.4-29.3V215h19.6v90.1l-4.4,29.4L157.5,334.6
			L157.5,334.6z" fill="white"/>
		<path d="M263.7,334.8v-52.3h142.2v32.1c0,11.7-7.3,20.2-17.4,20.2H263.7z M285.3,322.3h91.9c2,0,3.6-0.8,4.8-2.3
			c1.2-1.4,1.8-3.2,1.8-5.3v-1.6h-98.5V322.3L285.3,322.3z M285.3,304.3h98.5V295h-98.5V304.3L285.3,304.3z M264.4,278.6
			c0-1.5,0.1-3.4,0.1-5.2c0-1.9,0.1-3.8,0.1-5.4c4.8-0.2,17.9-1.5,21.7-10.9l0.7-1.7h-25.4v-13.1h25.5v-10h-24.9l7-17h20.4l-1.8,4.2
			h45v12.8h-27.3v10h28.3v13.1h-28.1l-0.2,0.9C302,269.5,293.6,278.3,264.4,278.6z M343.2,275.6v-60.4H408v43c0,2.4-0.5,4.7-1.3,6.8
			c-0.9,2.1-2.1,4-3.7,5.5c-1.6,1.6-3.4,2.8-5.5,3.7c-2.1,0.9-4.4,1.3-6.8,1.3L343.2,275.6L343.2,275.6z M364.3,261.3h16.1
			c1.8,0,3.3-0.6,4.6-1.9c1.3-1.3,1.9-2.8,1.9-4.6v-25.3h-22.6V261.3z" fill="white"/>
		<polygon points="442.3,259.5 442.3,255.3 422.8,255.3 422.8,248.8 442.3,248.8 442.3,240.4 422.8,240.4 422.8,233.9 442.3,233.9 
			442.3,225.5 422.8,225.5 422.8,219 442.3,219 442.3,215.1 462.7,215.1 462.7,219 485.9,219 485.9,225.5 462.7,225.5 462.7,233.9 
			485.9,233.9 485.9,240.4 462.7,240.4 462.7,248.8 485.9,248.8 485.9,255.3 462.7,255.3 462.7,259.5 		" fill="white"/>
		<path d="M422.8,304.6v-6.5h111.8c2.5,0,3.9-1.4,3.9-3.9v-4.8H422.8v-6.7h115.7v-8.4H422.8v-8.1H559v24.4c-0.2,4-1.7,7.2-4.5,10
			c-2.8,2.7-6.2,4.1-10.2,4.1L422.8,304.6L422.8,304.6z" fill="white"/>
		<path d="M461.1,335c-1.7,0-3.2-0.3-4.4-0.8c-1.2-0.5-2.2-1.3-3-2.2s-1.4-1.8-1.7-2.8c-0.3-1-0.5-1.9-0.5-2.8v-14.5H474v12
			c0,2.3,1,3.1,1.8,3.3c0.7,0.2,1.4,0.3,1.9,0.3h57.7l-2.9,7.5H461.1z" fill="white"/>
		<polygon points="518.9,259.5 518.9,255.3 495.7,255.3 495.7,248.8 518.9,248.8 518.9,240.4 495.7,240.4 495.7,233.9 518.9,233.9 
			518.9,225.5 495.7,225.5 495.7,219 518.9,219 518.9,215.1 539.3,215.1 539.3,219 558.9,219 558.9,225.5 539.3,225.5 539.3,233.9 
			558.9,233.9 558.9,240.4 539.3,240.4 539.3,248.8 558.9,248.8 558.9,255.3 539.3,255.3 539.3,259.5 		" fill="white"/>
		<path d="M323,276.3c-5.8,0-10.6-4.7-10.6-10.6c0-5.8,4.7-10.6,10.6-10.6c5.8,0,10.6,4.7,10.6,10.6S328.9,276.3,323,276.3z" fill="white"/>
		<path d="M430.9,334.8c-5.8,0-10.6-4.7-10.6-10.6s4.7-10.6,10.6-10.6c5.8,0,10.6,4.7,10.6,10.6S436.7,334.8,430.9,334.8z" fill="white"/>
		<path d="M551,334.8c-5.8,0-10.6-4.7-10.6-10.6s4.7-10.6,10.6-10.6s10.6,4.7,10.6,10.6S556.9,334.8,551,334.8z" fill="white"/>
		<path d="M507.4,332c-5.8,0-10.6-4.7-10.6-10.6c0-5.8,4.7-10.6,10.6-10.6c5.8,0,10.6,4.7,10.6,10.6
			C517.9,327.3,513.2,332,507.4,332z" fill="white"/>
	</g>
	<g>
		<g>
			<path d="M611.2,259.6l3.7-4.7c3.1,3.7,8.4,7,15.3,7c8.7,0,11.5-4.7,11.5-8.5c0-12.6-28.9-5.6-28.9-22.9c0-8,7.2-13.6,16.8-13.6
				c7.4,0,13.1,2.6,17.2,6.9l-3.7,4.5c-3.7-4.1-8.8-5.8-14.1-5.8c-5.8,0-10,3.1-10,7.7c0,11,28.9,4.7,28.9,22.9
				c0,7-4.8,14.3-18,14.3C621.5,267.3,615.2,264.1,611.2,259.6z" fill="white"/>
			<path d="M698.5,266.4v-41l-16.5,41h-2.5l-16.6-41v41h-6.1v-48.7h8.7l15.2,37.5l15.1-37.5h8.7v48.7H698.5z" fill="white"/>
			<path d="M750.7,266.4l-4.3-10.9h-24.3l-4.3,10.9h-6.9l19.6-48.7h7.5l19.6,48.7H750.7z M734.3,223.9L724,250.3h20.7L734.3,223.9z" fill="white"
				/>
			<path d="M792.2,266.4L779.9,247h-9.8v19.4H764v-48.7h19.6c8.9,0,15.3,5.7,15.3,14.7c0,8.8-6.1,13.6-12.7,14.2l13.1,19.9h-7.1
				V266.4z M792.7,232.4c0-5.6-4-9.3-9.8-9.3h-12.8v18.6h12.8C788.6,241.8,792.7,237.9,792.7,232.4z" fill="white"/>
			<path d="M819.8,266.4v-43.3h-15.4v-5.4h37v5.4h-15.5v43.3H819.8z" fill="white"/>
			<path d="M609.9,325.3l5.7-8.1c3.4,3.6,8.8,6.6,15.5,6.6c5.8,0,8.5-2.6,8.5-5.4c0-8.5-28.1-2.6-28.1-20.9c0-8.1,7-14.8,18.5-14.8
				c7.7,0,14.2,2.3,19,6.8l-5.8,7.7c-3.9-3.7-9.2-5.3-14.2-5.3c-4.4,0-6.9,1.9-6.9,4.8c0,7.7,28,2.5,28,20.7
				c0,8.9-6.4,15.6-19.5,15.6C621.2,333.1,614.5,330,609.9,325.3z" fill="white"/>
			<path d="M690.4,332.3v-20.5h-23v20.5H657v-48.7h10.4v19.1h23v-19.1h10.4v48.7H690.4z" fill="white"/>
			<path d="M710.4,332.3v-48.7h34.5v9.1h-24.1v10.2h23.6v9.1h-23.6V323h24.1v9.1h-34.5V332.3z" fill="white"/>
			<path d="M786.6,332.3l-23.2-31.8v31.8H753v-48.7h10.7l22.6,30.6v-30.6h10.4v48.7H786.6z" fill="white"/>
			<path d="M804.5,332.3v-8.4l23-31.2h-23v-9.1h36.6v8.3l-23,31.3h23.5v9.1L804.5,332.3L804.5,332.3z" fill="white"/>
			<path d="M882.8,332.3v-20.5h-23v20.5h-10.4v-48.7h10.4v19.1h23v-19.1h10.4v48.7H882.8z" fill="white"/>
			<path d="M902.8,332.3v-48.7h34.5v9.1h-24.1v10.2h23.6v9.1h-23.6V323h24.1v9.1h-34.5V332.3z" fill="white"/>
			<path d="M979,332.3l-23.2-31.8v31.8h-10.4v-48.7h10.7l22.6,30.6v-30.6H989v48.7H979z" fill="white"/>
		</g>
	</g>
</g>
</svg>
