<?xml version="1.0" encoding="utf-8"?>
<!-- Generator: Adobe Illustrator 19.0.0, SVG Export Plug-In . SVG Version: 6.00 Build 0)  -->
<svg version="1.1" id="图层_1" xmlns="http://www.w3.org/2000/svg" xmlns:xlink="http://www.w3.org/1999/xlink" x="0px" y="0px"
	 viewBox="0 0 1024 1024" style="enable-background:new 0 0 1024 1024;" xml:space="preserve">
<g>
	<path d="M512,67L67,512l445,445l445-445L512,67z M511.3,736.7c-24.8,0-44.9-20.1-44.9-44.9c0-24.8,20.1-44.9,44.9-44.9
		c24.8,0,44.9,20.1,44.9,44.9C556.2,716.5,536.1,736.7,511.3,736.7z M560.5,325.5l-24.2,271.3h-0.1c-1.4,12.3-12.5,21.2-24.9,19.8
		c-10.4-1.2-18.6-9.4-19.8-19.8h-0.1l-28.8-269.1c-6-26.9,11-53.6,38-59.6c26.9-6,53.6,11,59.6,38
		C561.4,312.5,561.6,319.1,560.5,325.5L560.5,325.5z" fill ="white"/>
</g>
</svg>
