<?xml version="1.0" encoding="utf-8"?>
<!-- Generator: Adobe Illustrator 19.0.0, SVG Export Plug-In . SVG Version: 6.00 Build 0)  -->
<svg version="1.1" id="图层_1" xmlns="http://www.w3.org/2000/svg" xmlns:xlink="http://www.w3.org/1999/xlink" x="0px" y="0px"
	 viewBox="0 0 1024 1024" style="enable-background:new 0 0 1024 1024;" xml:space="preserve">
<g>
	<g>
		<path d="M887.5,887.5H334.1V927l592.9-0.1V373.7h-39.5V887.5z M97,294.6h197.6V97H97V294.6z M97,927h118.6v-79h39.5v-39.5H176
			v-39.5h79.1v-79.1h-39.5v-39.5h39.5v-79h-39.5v-39.5h39.5v-79h-39.5v-39.5h39.5v-79H97V927z M334.1,97v197.6h79v-79h39.5v79h79.1
			v-79h39.5v79h79.1v-79h39.5v79h79v-79h39.5v79H848v-79h79V97.1L334.1,97z" fill="white"/>
	</g>
</g>
</svg>
