<?xml version="1.0" encoding="utf-8"?>
<!-- Generator: Adobe Illustrator 19.0.0, SVG Export Plug-In . SVG Version: 6.00 Build 0)  -->
<svg version="1.1" id="图层_1" xmlns="http://www.w3.org/2000/svg" xmlns:xlink="http://www.w3.org/1999/xlink" x="0px" y="0px"
	 viewBox="0 0 1024 1024" style="enable-background:new 0 0 1024 1024;" xml:space="preserve">
<g>
	<path d="M705.7,737.1c-9.9-2.6-20.9,1-27.2,9.9c-11,15.2-3.7,36.1,14.1,40.8c57.6,15.7,90,36.1,96.3,47.6
		c-11.5,20.9-104.7,69.1-276.9,69.1c-172.8,0-265.4-48.2-276.9-69.1c6.8-12,40.3-33,100.5-48.7c17.8-4.7,25.1-25.1,14.7-40.3
		c0,0,0-0.5-0.5-0.5c-6.3-8.4-17.3-12.6-27.2-9.9c-84.8,22-140.3,58.1-140.3,99.5c0,67,147.6,121.5,329.8,121.5
		s329.8-54.4,329.8-121.5C841.8,795.2,788.4,759.6,705.7,737.1z" fill="white"/>
	<path d="M512.3,862.8c4.7,0,9.4-2.1,12.6-6.3c11.5-14.1,288.5-344,288.5-501.5C812.8,192.6,673,67,511.2,67
		c-161.8,0-300.5,125.6-300.5,287.9c0,157.6,276.4,487.4,287.9,501.5C501.8,860.1,507,862.8,512.3,862.8z M511.2,145.5
		c123,0,223,93.7,223,209.4c0,66-89.5,222.5-223,392.1c-133-169.6-222-326.2-222-392.1C289.2,239.2,388.7,145.5,511.2,145.5z" fill="white"/>
	<path d="M643.1,368c-0.5-72.2-59.2-130.9-131.4-130.9S380.9,295.8,380.9,368c0,35.1,13.6,68.1,38.7,92.7
		c24.6,24.6,57.6,38.2,92.7,38.2C584.5,498.9,643.1,440.3,643.1,368z M474.6,405.2l-0.5-0.5c-9.9-9.4-15.2-22.5-15.2-36.6
		c0-28.8,23.6-52.4,52.4-52.4s52.4,23.6,52.4,52.4s-23,52.4-51.8,52.4C497.6,420.4,484.5,415.1,474.6,405.2z" fill="white"/>
</g>
</svg>
