<?xml version="1.0" encoding="utf-8"?>
<!-- Generator: Adobe Illustrator 19.0.0, SVG Export Plug-In . SVG Version: 6.00 Build 0)  -->
<svg version="1.1" id="图层_1" xmlns="http://www.w3.org/2000/svg" xmlns:xlink="http://www.w3.org/1999/xlink" x="0px" y="0px"
	 viewBox="32 -232 1024 1024" style="enable-background:new 32 -232 1024 1024;" xml:space="preserve">
<path d="M878.5-48.2c-171.6,0-287.8-100.1-293.3-100.1c-4.5-4.5-10-8.1-15.9-10.8c-7.2-4.3-15.7-6.8-24.7-6.9v0h-1.3v0
	c-8.9,0.1-17.3,2.6-24.5,6.9c-6,2.7-11.4,6.3-15.9,10.8c-5.5,0-121.8,100.1-293.3,100.1c-27.7,0-55.3,22.3-49.8,50.1v311.5
	c0,127.9,193.7,411.6,381.9,411.6c0.8,0,1.5,0,2.3,0v-1h0.2v1c0.8,0,1.5,0,2.3,0c188.2,0,381.9-283.7,381.9-411.6V1.9
	C933.8-25.9,906.1-48.2,878.5-48.2z M518.6,29.7c0-11.1,11.1-27.8,27.8-27.8s27.8,16.7,27.8,27.8V102c0,16.7-11.1,27.8-27.8,27.8
	s-27.8-11.1-27.8-27.8V29.7z M340.6,90.9c11.1-11.1,27.8-11.1,38.9,0l50.1,55.6c11.1,11.1,11.1,27.8,0,38.9
	c-5.6,5.6-16.7,5.6-22.3,5.6s-11.1-5.6-16.7-11.1l-50.1-50.1C329.5,118.7,329.5,102,340.6,90.9z M624.3,558.1H468.5
	c-16.7,0-27.8-11.1-27.8-27.8s11.1-27.8,27.8-27.8h155.8c16.7,0,27.8,11.1,27.8,27.8S641,558.1,624.3,558.1z M679.9,458h-267
	c-16.7,0-27.8-11.1-27.8-27.8s11.1-27.8,27.8-27.8h267c16.7,0,27.8,11.1,27.8,27.8S696.6,458,679.9,458z M679.9,363.4
	c-16.7,0-27.8-11.1-27.8-27.8c0-55.6-50.1-105.7-105.7-105.7S446.3,280,446.3,335.6c0,16.7-11.1,27.8-27.8,27.8
	s-27.8-11.1-27.8-27.8c0-89,72.3-161.3,155.7-161.3c89,0,161.3,72.3,161.3,161.3C707.7,352.3,696.6,363.4,679.9,363.4z M757.8,135.4
	l-50.1,50.1c-5.6,5.6-16.7,5.6-22.3,5.6c-11.1,0-16.7-5.6-16.7-5.6c-11.1-11.1-11.1-27.8,0-38.9l50.1-50.1
	c11.1-11.1,27.8-11.1,38.9,0C768.9,107.6,768.9,124.3,757.8,135.4z" fill="#797979"/>
</svg>
