<?xml version="1.0" encoding="utf-8"?>
<!-- Generator: Adobe Illustrator 19.0.0, SVG Export Plug-In . SVG Version: 6.00 Build 0)  -->
<svg version="1.1" id="图层_1" xmlns="http://www.w3.org/2000/svg" xmlns:xlink="http://www.w3.org/1999/xlink" x="0px" y="0px"
	 viewBox="-863 -231 1024 1024" style="enable-background:new -863 -231 1024 1024;" xml:space="preserve">
<path d="M-787.3,529.7v0.1h-8.7C-793,529.9-790.1,529.8-787.3,529.7z"/>
<g>
	<path d="M71.6,258.3H-84V-7.3c0-0.3-0.2-0.5-0.5-0.5H-128c-0.3,0-0.5,0.2-0.5,0.5v265.7h-445V-7.3c0-0.3-0.2-0.5-0.5-0.5h-43.5
		c-0.3,0-0.5,0.2-0.5,0.5v265.7h-155.6c-12.4,0-22.4,10-22.4,22.4v266.6c0,12.4,10,22.4,22.4,22.4H71.6c12.4,0,22.4-10,22.4-22.4
		V280.8C94,268.4,84,258.3,71.6,258.3z M49.5,480.9h-801V347.4h801V480.9z" fill="#36e5ff"/>
	<rect x="-351" y="391.9" width="89" height="44.5" fill="#36e5ff"/>
	<rect x="-217.5" y="391.9" width="89" height="44.5" fill="#36e5ff"/>
	<rect x="-84" y="391.9" width="89" height="44.5" fill="#36e5ff"/>
</g>
</svg>
