<?xml version="1.0" encoding="utf-8"?>
<!-- Generator: Adobe Illustrator 19.0.0, SVG Export Plug-In . SVG Version: 6.00 Build 0)  -->
<svg version="1.1" id="图层_1" xmlns="http://www.w3.org/2000/svg" xmlns:xlink="http://www.w3.org/1999/xlink" x="0px" y="0px"
	 viewBox="-862.7 -231 1024 1024" style="enable-background:new -862.7 -231 1024 1024;" xml:space="preserve">
<path d="M-30.8-50L-74-6C69.3,156.4,68.8,403.4-74,567.1l44.5,44.9C136,437.2,135.6,123.9-30.8-50z M-131.8,52.8l-44.9,45.4
	c87.2,105,87.2,259.4,0.4,365.3l44.5,44.9C-20.6,377.5-20.6,182.7-131.8,52.8z M-627.5-6l-43.2-44c-166.4,174-166.8,487.2-0.9,662
	l44.5-44.9C-770.3,403.4-770.3,156.4-627.5-6z M-569.6,52.8c-111.2,129.9-111.2,324.8,0,455.6l44.5-44.9
	c-86.8-105.9-86.8-260.3,0.4-365.3C-524.7,98.1-569.6,52.8-569.6,52.8z M-351.2,136c-79.2,0-143.7,65.4-143.7,145.5
	c0,80.5,64.1,145.5,143.7,145.5c79.2,0,143.7-65.4,143.7-145.5S-271.5,136-351.2,136z" fill="#36e5ff"/>
</svg>
