<?xml version="1.0" encoding="utf-8"?>
<!-- Generator: Adobe Illustrator 19.0.0, SVG Export Plug-In . SVG Version: 6.00 Build 0)  -->
<svg version="1.1" id="图层_1" xmlns="http://www.w3.org/2000/svg" xmlns:xlink="http://www.w3.org/1999/xlink" x="0px" y="0px"
	 viewBox="0 0 1024 1024" style="enable-background:new 0 0 1024 1024;" xml:space="preserve">
<path d="M948.1,423c-4.2-25.7-18.8-40.3-38.2-40.3h-4.2c-65.4,0-116.7-52.9-116.7-116.7c0-20.9,10.5-44.5,10.5-44.5
	c10.5-23.6,2.1-48.7-16.8-63.3h-2.1L670.6,96.8h-2.1c-6.3-2.1-12.6-4.2-20.9-4.2c-16.8,0-31.9,6.3-42.4,16.8
	c-14.7,14.7-57.1,50.8-91.1,50.8s-78.5-36.1-91.1-50.8c-10.5-10.5-25.7-16.8-42.4-16.8c-8.4,0-14.7,2.1-20.9,4.2h-2.1l-114.7,63.3
	h-2.1c-18.8,14.7-27.7,42.4-16.8,63.3c0,0,10.5,23.6,10.5,44.5c0,65.4-52.9,116.7-116.7,116.7h-4.2c-18.8-2.1-34,14.7-38.2,40.3
	c0,2.1-8.4,48.7-8.4,86.9s8.4,84.8,8.4,86.9c4.2,23.6,18.8,40.3,38.2,40.3h2.1c65.4,0,116.7,52.9,116.7,116.7
	c0,20.9-10.5,44.5-10.5,44.5c-10.5,23.6-2.1,48.7,16.8,63.3h2.1l107.8,61.3h2.1c6.3,2.1,12.6,4.2,20.9,4.2
	c16.8,0,31.9-6.3,42.4-16.8c12.6-12.6,57.1-52.9,93.2-52.9c36.1,0,78.5,40.3,93.2,55c10.5,10.5,25.7,16.8,42.4,16.8
	c8.4,0,14.7,0,23.6-8.4h2.1l112.6-61.3h2.1c18.8-14.7,27.7-42.4,16.8-63.3c0,0-10.5-23.6-10.5-44.5c0-65.4,52.9-116.7,116.7-116.7
	h4.2c18.8,2.1,34-14.7,38.2-40.3c0-2.1,8.4-48.7,8.4-86.9S948.1,425.1,948.1,423z M511.5,695.2c-100.5,0-183.2-82.7-183.2-183.2
	S411,328.8,511.5,328.8S694.7,411.5,694.7,512S612,695.2,511.5,695.2z" fill="white"/>
<path d="M512,408.9c-56,0-103.1,45-103.1,103.1c0,56,45,103.1,103.1,103.1c56,0,103.1-45,103.1-103.1
	C615.1,456,570.1,408.9,512,408.9z" fill="white"/>
</svg>
