<?xml version="1.0" encoding="utf-8"?>
<!-- Generator: Adobe Illustrator 19.0.0, SVG Export Plug-In . SVG Version: 6.00 Build 0)  -->
<svg version="1.1" id="图层_1" xmlns="http://www.w3.org/2000/svg" xmlns:xlink="http://www.w3.org/1999/xlink" x="0px" y="0px"
	 viewBox="0 0 1024 1024" style="enable-background:new 0 0 1024 1024;" xml:space="preserve">
<g>
	<path d="M280.6,352.3c11.3-13.1,23.6-25.2,37-36.3l-83.9-85.3c-0.3-0.3-0.6-0.6-1-0.9c-10-9.4-25.8-9-35.3,0.9
		c-10,10.3-10,26.6,0,36.9L280.6,352.3z" fill ="#00a2ff"/>
	<path d="M537.9,247.1V123.7c0-14-11.5-25.4-25.6-25.4c-14.1,0-25.6,11.4-25.6,25.4v123.4c8.4-0.7,16.6-1.3,25.4-1.3
		C520.8,245.8,529.3,246.5,537.9,247.1z" fill ="#00a2ff"/>
	<path d="M747.6,356.9l82.1-83.6c10.1-10.4,10.1-26.9,0-37.3c-0.3-0.3-0.5-0.5-0.8-0.8c-10.1-9.5-26.1-9.2-35.8,0.8L711,319.8
		C724.2,331.2,736.5,343.6,747.6,356.9z" fill ="#00a2ff"/>
	<path d="M931.5,524.8h-113c1.1,10.7,1.6,21.5,1.6,32.6V577h111.3c14-0.4,25.2-11.4,25.7-25.2C957.5,537.4,946,525.3,931.5,524.8z" fill ="#00a2ff"
		/>
	<path d="M204,557.4c0-10.9,0.5-21.8,1.6-32.7h-113c-14,0.4-25.2,11.5-25.6,25.3l0,0c-0.5,14.4,11,26.5,25.6,27H204V557.4z" fill ="#00a2ff"/>
	<path d="M828.6,873.3h-59.9l0.1-313.7c0.1-4.6,0.1-9.2,0-13.8C765,405.3,646.9,294.5,505.1,298.4
		c-141.8,3.8-253.7,120.7-249.8,261.2v313.7h-59.9c-14,0.4-25.2,11.5-25.6,25.3c-0.5,14.4,11,26.5,25.6,27h633.2
		c14-0.5,25.2-11.6,25.6-25.4v0C854.6,885.8,843.2,873.8,828.6,873.3z M619.3,572.7L487.6,726.1c-1.9,1.9-5,2.7-7.4,1.6
		c-2.7-1.2-4.3-3.9-3.9-6.6l15.5-107.3h-82.2c-2.7,0-4.7-1.6-5.8-3.9c-1.2-2.3-0.8-5,0.8-7l131.8-153.5c1.9-1.9,5-2.7,7.4-1.6
		c2.7,1.2,4.3,3.9,3.9,6.6l-15.1,107.3h81.8c2.7,0,4.7,1.6,5.8,3.9C621.3,568,620.9,570.7,619.3,572.7z" fill ="#00a2ff"/>
</g>
</svg>
