<?xml version="1.0" encoding="utf-8"?>
<!-- Generator: Adobe Illustrator 19.0.0, SVG Export Plug-In . SVG Version: 6.00 Build 0)  -->
<svg version="1.1" id="图层_1" xmlns="http://www.w3.org/2000/svg" xmlns:xlink="http://www.w3.org/1999/xlink" x="0px" y="0px"
	 viewBox="0 0 1024 1024" style="enable-background:new 0 0 1024 1024;" xml:space="preserve">
<g>
	<path d="M512,412.5c-53.9,0-99.5,43.5-99.5,99.5c0,53.9,43.5,99.5,99.5,99.5c53.9,0,99.5-43.5,99.5-99.5
		C611.5,458.1,568,412.5,512,412.5z" fill="white"/>
	<polygon points="957,276.4 721.4,512 957,747.6 	" fill="white"/>
	<polygon points="67,276.4 302.6,512 67,747.6 	" fill="white"/>
	<g>
		<path d="M771.7,636.1C725.1,732.9,626.1,799.9,512,799.9c-114.1,0-213.1-67-259.7-163.9l-58.1,58.1
			C257.6,804.1,375.9,878.5,512,878.5s254.4-74.3,317.8-184.3L771.7,636.1z" fill="white"/>
		<path d="M512,224.1c114.1,0,213.1,67,259.7,163.9l58.1-58.1C766.4,219.9,648.1,145.5,512,145.5s-254.4,74.3-317.8,184.3l58.1,58.1
			C298.9,291.1,397.9,224.1,512,224.1z" fill="white"/>
	</g>
</g>
</svg>
