<?xml version="1.0" encoding="utf-8"?>
<!-- Generator: Adobe Illustrator 19.0.0, SVG Export Plug-In . SVG Version: 6.00 Build 0)  -->
<svg version="1.1" id="图层_1" xmlns="http://www.w3.org/2000/svg" xmlns:xlink="http://www.w3.org/1999/xlink" x="0px" y="0px"
	 viewBox="0 0 1024 1024" style="enable-background:new 0 0 1024 1024;" xml:space="preserve">
<g>
	<path d="M650,683.5l-4.6,51.3c106.1,14.9,190.3,45.8,190.3,81.8c0,50.3-164.6,91.2-323.5,91.2c-159.1,0-323.7-40.8-323.7-91.2
		c0-35.5,82.3-66.2,186.5-81.2l-4.8-51.5c-174.9,18.7-301,70.9-301,132.7c0,77.4,198.3,140.4,442.8,140.4
		c244.4,0,442.8-62.9,442.6-140.2C954.7,754.5,826.8,701.8,650,683.5z M835.6,329.2V178.4H549.8V67h-59.1v111.4H253.9l-150.3,75.3
		l152.2,75.5H835.6z M549.8,851V548.5h133.6l152-72.8l-150.3-72.8H300.6v145.7h190.1V851H549.8z" fill="#797979"/>
</g>
</svg>
