<?xml version="1.0" encoding="utf-8"?>
<!-- Generator: Adobe Illustrator 19.0.0, SVG Export Plug-In . SVG Version: 6.00 Build 0)  -->
<svg version="1.1" id="图层_1" xmlns="http://www.w3.org/2000/svg" xmlns:xlink="http://www.w3.org/1999/xlink" x="0px" y="0px"
	 viewBox="0 0 1024 1024" style="enable-background:new 0 0 1024 1024;" xml:space="preserve">
<path d="M906.7,450.7L560.9,116.6c-27-26.1-70.8-26.1-97.8,0L117.3,450.7c-27,26.1-27,68.4,0,94.5c27,26.1,70.8,26.1,97.8,0
	l227.8-220.1v535c0,36.9,31,66.8,69.2,66.8c38.2,0,69.2-29.9,69.2-66.8v-535l227.8,220.1c13.5,13,31.2,19.6,48.9,19.6
	c17.7,0,35.4-6.5,48.9-19.6C933.8,519.1,933.8,476.8,906.7,450.7z" fill="white"/>
</svg>
