<?xml version="1.0" encoding="utf-8"?>
<!-- Generator: Adobe Illustrator 19.0.0, SVG Export Plug-In . SVG Version: 6.00 Build 0)  -->
<svg version="1.1" id="图层_1" xmlns="http://www.w3.org/2000/svg" xmlns:xlink="http://www.w3.org/1999/xlink" x="0px" y="0px"
	 viewBox="0 0 1024 1024" style="enable-background:new 0 0 1024 1024;" xml:space="preserve">
<style type="text/css">
	.st0{fill:#A5C1D5;}
	.st1{fill:#FFFFFF;}
</style>
<path class="st0" d="M512,927c-56,0-110.4-11-161.5-32.6c-49.4-20.9-93.8-50.8-131.9-89c-38.1-38.1-68-82.5-89-131.9
	C108,622.4,97,568,97,512s11-110.4,32.6-161.5c20.9-49.4,50.8-93.8,89-131.9s82.5-68,131.9-89C401.6,108,456,97,512,97
	s110.4,11,161.5,32.6c49.4,20.9,93.8,50.8,131.9,89c38.1,38.1,68,82.5,89,131.9C916,401.6,927,456,927,512s-11,110.4-32.6,161.5
	c-20.9,49.4-50.8,93.8-89,131.9c-38.1,38.1-82.5,68-131.9,89C622.4,916,568,927,512,927z" fill="white"/>
<g>
	<path class="st1" d="M512,67C266.2,67,67,266.2,67,512s199.2,445,445,445s445-199.2,445-445S757.8,67,512,67z M805.4,805.4
		c-9.1,9.1-18.6,17.8-28.5,26c-12.7-7.1-58.7-32.5-75.8-37l-30.6-8c-21.5-5.7-40.9-11.3-49.3-16.2c-23-13.7-15.6-88.3-15.6-88.3
		l15.6-12.9c0,0,4-33.8,10.8-46c15.2-27.5,31.3-73.6,31.3-73.6s15.6-10.7,15.6-29.4c0-18.7-15.6-29.4-15.6-29.4s5.9-52.1,5.9-88.3
		c0-76-50.7-117.7-141.9-117.7c-91.1,0-157.6,35.4-157.6,117.7c0,36.2,12.2,88.3,12.2,88.3s-15.6,10.7-15.6,29.4
		c0,18.7,15.6,29.4,15.6,29.4s18.3,53.4,31.3,73.6c7.6,11.8,10.7,46,10.7,46l15.6,12.9c0,0,7.4,74.6-15.6,88.3
		c-20.8,12.3-109.7,28.6-131.4,40.5c0.1,0.1-34.8,15.7-45.7,20.6c-9.8-8.2-19.3-16.8-28.4-25.9c-38.1-38.1-68-82.5-89-131.9
		C108,622.4,97,568,97,512s11-110.4,32.6-161.5c20.9-49.4,50.8-93.8,89-131.9s82.5-68,131.9-89C401.6,108,456,97,512,97
		s110.4,11,161.5,32.6c49.4,20.9,93.8,50.8,131.9,89c38.1,38.1,68,82.5,89,131.9C916,401.6,927,456,927,512s-11,110.4-32.6,161.5
		C873.5,722.9,843.6,767.3,805.4,805.4z" fill="white"/>
	<path class="st1" d="M749.2,809.2c0.3,0.1,0.6,0.3,0.9,0.4C751.1,808.8,750.6,808.7,749.2,809.2z" fill="white"/>
</g>
</svg>
