<?xml version="1.0" encoding="utf-8"?>
<!-- Generator: Adobe Illustrator 19.0.0, SVG Export Plug-In . SVG Version: 6.00 Build 0)  -->
<svg version="1.1" id="图层_1" xmlns="http://www.w3.org/2000/svg" xmlns:xlink="http://www.w3.org/1999/xlink" x="0px" y="0px"
	 viewBox="32 -232 1024 1024" style="enable-background:new 32 -232 1024 1024;" xml:space="preserve">
<path id="XMLID_42_" d="M963.3,345.8H852.1v-19.9c0-11.2-0.5-22.1-1.6-32.9h113c14.6,0.5,26,12.7,25.5,27.3
	C988.5,334.2,977.3,345.4,963.3,345.8L963.3,345.8z M779.6,123.2c-11.2-13.5-23.4-26.1-36.7-37.5L825.2,1
	c9.7-10.1,25.7-10.4,35.8-0.8c0.3,0.3,0.5,0.5,0.8,0.8c10.1,10.5,10.1,27.2,0,37.7L779.6,123.2z M800.7,645.3h59.9
	c14.6,0.5,26.1,12.7,25.6,27.3c0,0,0,0,0,0c-0.4,14-11.6,25.2-25.6,25.6H227.4c-14.6-0.5-26.1-12.7-25.6-27.3
	c0.4-14,11.6-25.2,25.6-25.6h59.9V328.1c-3.9-142,108-260.2,249.8-264.1C678.9,60.1,797,172.1,800.8,314.1c0.1,4.6,0.1,9.3,0,13.9
	L800.7,645.3z M749.4,345.8c3.2-113.6-86.2-220.6-199.6-223.8s-208,98.6-211.2,212.2c-0.1,3.8-0.1,7.7,0,11.5v299.5h410.8V345.8z
	 M548.5,233.1c9.8-10.1,25.8-10.3,35.9-0.5c0.2,0.2,0.3,0.3,0.5,0.5c10.1,10.5,10.1,27.1,0,37.5l-55.8,57.4h92.2
	c14.3,0.2,25.8,12,25.6,26.3c0,0,0,0,0,0v0.1c0,3.6-0.7,7.1-2,10.4c3.1,9.7,0.6,20.2-6.3,27.6L538,496.2
	c-10.1,10.4-26.7,10.7-37.2,0.6c0,0,0,0,0,0l-0.6-0.6c-10.5-10.8-10.5-28.1,0-38.9l74-76.3h-90c-11-2.9-21.9-6.4-32.5-10.5
	c-10-10.5-10-26.9,0-37.4L548.5,233.1L548.5,233.1z M518.7,12.2v-124.8c0-14.2,11.5-25.7,25.6-25.7c14.1,0,25.6,11.5,25.6,25.7V12.2
	c-8.6-0.7-17.1-1.4-25.9-1.4C535.3,10.8,527,11.5,518.7,12.2z M312.6,118.5l-83.2-85.8c-10-10.4-10-26.9,0-37.3
	c9.5-10,25.3-10.4,35.3-1c0.3,0.3,0.6,0.6,1,1l83.9,86.3C336.3,93,323.9,105.2,312.6,118.5z M236,325.9v19.9H124.6
	c-14.6-0.5-26.1-12.7-25.6-27.3c0,0,0,0,0,0c0.4-14,11.6-25.2,25.6-25.6h113C236.5,303.8,236,314.9,236,325.9z"/>
</svg>
