<?xml version="1.0" encoding="utf-8"?>
<!-- Generator: Adobe Illustrator 19.0.0, SVG Export Plug-In . SVG Version: 6.00 Build 0)  -->
<svg version="1.1" id="图层_1" xmlns="http://www.w3.org/2000/svg" xmlns:xlink="http://www.w3.org/1999/xlink" x="0px" y="0px"
	 viewBox="0 0 1024 1024" style="enable-background:new 0 0 1024 1024;" xml:space="preserve">
<g>
	<path d="M952.5,774.4L750.4,167.2c-0.2-0.6-0.4-1.3-0.6-1.9C734.3,121.3,686,98.1,642,113.5l-76.3,27.2
		c-18.9,6.7-41.1,16.5-42.4,49.8c-1.7-47.8-41-85.8-88.9-85.8l-278.4,0v0c-49.2,0-89,39.8-89,89v636.6c0,49.2,39.8,89,89,89h278.4
		c49.2,0,89-39.8,89-89V281.9l192.1,574.8c0.2,0.6,0.4,1.3,0.6,1.9c15.4,44.1,63.7,67.3,107.8,51.8l76.3-27.1
		C944.4,867.6,967.3,818.9,952.5,774.4z M272.8,874.8H156c-24.6,0-44.5-19.9-44.5-44.5V193.7c0-24.6,19.9-44.5,44.5-44.5h116.8
		V874.8z M478.9,830.3c0,24.6-19.9,44.5-44.5,44.5H317.5V149.2h116.9c24.6,0,44.5,19.9,44.5,44.5V830.3z M885.4,841.4l-76.3,27.1
		c-0.3,0.1-0.7,0.2-1,0.3c-21.1,6.7-43.6-5.1-50.2-26.1L555.7,235.5c-7.3-21.8,3.9-45.5,25-53h0l76.3-27.1c0.3-0.1,0.7-0.2,1-0.3
		c21.1-6.6,43.6,5.1,50.2,26.2l202.1,607.1C917.6,810.2,906.4,834,885.4,841.4z"/>
	<path d="M666.1,243.4L666.1,243.4C666,243.4,666,243.4,666.1,243.4c-4.3-11.6-17-17.5-28.6-13.3l-0.6,0.3
		c-11.5,4.2-17.5,16.9-13.3,28.5l22.8,62.7c0,0,0,0,0,0c4.2,11.6,17,17.5,28.5,13.3l0.6-0.3c11.5-4.2,17.5-16.9,13.3-28.5
		L666.1,243.4z"/>
</g>
</svg>
