<?xml version="1.0" encoding="utf-8"?>
<!-- Generator: Adobe Illustrator 19.0.0, SVG Export Plug-In . SVG Version: 6.00 Build 0)  -->
<svg version="1.1" id="图层_1" xmlns="http://www.w3.org/2000/svg" xmlns:xlink="http://www.w3.org/1999/xlink" x="0px" y="0px"
	 viewBox="0 0 1024 1024" style="enable-background:new 0 0 1024 1024;" xml:space="preserve">
<g>
	<path d="M804,718.1c-7.1-6-16.1-9.4-25.3-9.4c-11.6,0-22.4,5.1-29.8,14.1c-41.6,50.1-96.8,85-159.8,100.9c-7.9,2-16.2,3.8-24.7,5.3
		c-2.1,0.4-4.2,0.6-6.3,0.9l-4.3,0.6c-6.3,0.8-12.7,1.6-19.1,2c-3.1,0.2-6.3,0.3-9.4,0.4l-2.7,0.1c-4.2,0.1-8.5,0.2-12.7,0.2
		c-2.2,0-4.3,0-6.6-0.1c-2.1-0.1-4.1-0.2-6.2-0.4l-3-0.2c-7-0.5-14.6-1-22.1-2.1c-1.4-0.2-2.8-0.4-4.2-0.7l-0.9-0.2
		c-10.1-1.6-18.3-3.2-25.3-4.9l-1.5-0.3c-28.6-7.2-56-18.4-81.5-33.3c-0.5-0.3-1.1-0.7-1.2-0.8c-7.7-4.5-15.4-9.5-23.2-15.1
		c-0.9-0.7-4.7-3.5-4.7-3.5c-57.1-42.6-97.1-101.5-115.4-170.2l-2.1-7.9l69.5-18.6L130.7,440.5L67,632.2l69.5-18.6l2.1,7.9
		c20.5,76.8,63.2,144.8,123.7,196.9c0.5,0.5,1,1,1.8,2c4.5,3.8,9.2,7.3,14.1,10.9l4.5,3.4l2.1,1.6c1.6,1.2,3.1,2.5,4.8,3.7
		c7.8,5.7,16.4,11.3,27.8,18.1l2.7,1.6c31.5,18.5,65.5,32.4,101.4,41.4c0.7,0.2,1.5,0.5,2.4,0.7c9.2,2.2,19.2,4.2,30.7,6
		c1.3,0.2,2.5,0.4,3.8,0.6c1.3,0.2,2.6,0.5,3.9,0.6c7.6,1,15.7,1.8,26.6,2.5l2.4,0.2c3.4,0.2,6.8,0.5,10.2,0.6
		c2.7,0.1,5.3,0.1,8,0.1c5.1,0,10.2-0.1,15.3-0.2l4.1-0.1c3.8-0.1,7.7-0.2,11.7-0.5c1,0,2-0.1,2.9-0.1c1.1,0,2.1,0,3.3-0.1
		c5.5-0.5,10.9-1.2,16.3-2l5.2-0.7c1.5-0.2,3-0.4,4.5-0.6c1.2-0.1,2.3-0.3,3.3-0.4c14.6-2.4,26.7-4.9,37.9-7.9
		c76.4-20.4,143.9-63.9,195.1-125.6C822.9,757.4,820.6,732.2,804,718.1z"/>
	<path d="M887.5,410.3l-2.1-7.9c-20.6-76.7-63.1-144.5-123.4-196.5c-0.5-0.5-1-1-1.4-1.5c-0.3-0.3-0.5-0.6-0.7-0.8
		c-7-5.9-14.2-11.2-22.2-17.1l-1.1-0.9c-0.4-0.3-0.9-0.7-1.4-1.1c-50.4-36.4-106.8-59.5-167.8-68.7l-4.9-0.8
		c-8.3-1.1-17.5-2-28.9-2.7l-3.9-0.3c-2.2-0.2-4.4-0.3-6.6-0.4c-3.1-0.1-6.2-0.2-9.3-0.2c-5.3,0-10.5,0.1-15.8,0.3l-4.3,0.1
		c-3.2,0.1-6.4,0.2-9.7,0.4c-1.3,0.1-2.5,0.1-3.7,0.1c-1,0-2.1,0-3.1,0.1c-3.9,0.3-7.8,0.9-11.7,1.5c-2.2,0.3-4.4,0.7-6.6,1l-5,0.6
		c-2.6,0.3-5.2,0.6-7.7,1c-8.9,1.5-18.4,3.5-29.9,6.4c-1.1,0.3-2.2,0.5-3.4,0.7c-0.6,0.1-1.2,0.2-1.8,0.4l-0.7,0.3l-0.6,0.2
		c-76.6,20.5-143.9,63.8-194.9,125.2c-13.9,16.7-11.7,41.9,5,56.1c7.1,6,16.1,9.4,25.3,9.4c11.6,0,22.5-5.1,29.9-14.1
		c41.3-49.7,96-84.5,158.4-100.6c8.9-2.3,17.8-4.2,26.7-5.7c1.8-0.3,8-1,8-1c8.4-1.2,15.4-1.9,21.9-2.3c2.3-0.2,4.5-0.2,6.8-0.3
		l2.8-0.1c4.6-0.2,9.2-0.3,13.8-0.3c2.6,0,5.2,0,7.9,0.1c1.4,0.1,6.6,0.5,6.6,0.5c8.8,0.5,16.8,1.3,24.7,2.3l2.4,0.4
		c48.4,7.3,95,26.4,135,55.2l0.7,0.6c58,42.1,100.1,103.4,118.6,172.7l2.1,7.9l-69.5,18.6l151,134.3L957,391.7L887.5,410.3z"/>
</g>
</svg>
