<?xml version="1.0" encoding="utf-8"?>
<!-- Generator: Adobe Illustrator 19.0.0, SVG Export Plug-In . SVG Version: 6.00 Build 0)  -->
<svg version="1.1" id="图层_1" xmlns="http://www.w3.org/2000/svg" xmlns:xlink="http://www.w3.org/1999/xlink" x="0px" y="0px"
	 viewBox="-319 217 320 128" style="enable-background:new -319 217 320 128;" xml:space="preserve">
<style type="text/css">
	.st0{fill:#D0001C;}
	.st1{fill:#9D0016;}
	.st2{fill:#E60020;}
	.st3{fill:#FFFFFE;}
	.st4{fill:#D4001C;}
</style>
<g>
	<path class="st0" d="M-155,69.6c-7.6-15.5-14.8-31.2-21.6-47.1c-12.5-29.6-23.4-59.8-32.7-90.3l0,0
		c-34,97.9-86.5,187.9-153.2,264.6l0,0c48-11.2,96.9-18.5,146.5-21.7C-193.3,141.3-173,106.1-155,69.6z"/>
	<path class="st1" d="M-155,173c-20.4,0-40.7,0.7-60.9,2c-27.4,40.8-58.2,79.4-92.2,115.6l0,0c49.5-9.5,100.9-14.1,153.1-14.1
		c52.3,0,103.6,4.6,153.1,14.1l0,0c-34-36.2-64.8-74.8-92.2-115.6C-114.3,173.6-134.6,173-155,173z"/>
	<path class="st2" d="M-362.4,196.7l54.3,93.8c34-36.2,64.8-74.8,92.2-115.6C-265.5,178.2-314.4,185.5-362.4,196.7z"/>
	<path class="st3" d="M-215.9,175c22.6-33.7,43-68.9,60.9-105.4c18,36.6,38.3,71.7,60.9,105.4c-20.2-1.3-40.5-2-60.9-2
		C-175.4,173-195.7,173.6-215.9,175z"/>
	<path class="st2" d="M-100.8-67.9L-100.8-67.9c-9.3,30.5-20.2,60.7-32.7,90.3c-6.7,15.9-13.9,31.6-21.5,47.1
		c18,36.6,38.3,71.7,60.9,105.4c49.6,3.3,98.5,10.5,146.5,21.7l0,0C-14.2,120-66.8,30-100.8-67.9z"/>
	<path class="st1" d="M-155,69.6c7.6-15.5,14.8-31.2,21.5-47.1c12.5-29.6,23.4-59.8,32.7-90.3h-108.5c9.3,30.5,20.1,60.7,32.7,90.3
		C-169.8,38.4-162.6,54.1-155,69.6z"/>
	<path class="st0" d="M-1.9,290.5l54.3-93.8c-48-11.2-96.9-18.5-146.5-21.7C-66.7,215.8-35.9,254.4-1.9,290.5z"/>
</g>
<g>
	<rect x="-80.2" y="364.9" class="st4" width="6.9" height="84.6"/>
	<g>
		<g>
			<g>
				<path d="M-204.7,413.4c-0.1,0.1-5.1,4-12.1,8.2c-2.8-3.9-3.6-8-4.3-9.7h19.1v-44.8h-44.5v76.8l0.1,0.1c0,0,2.5,2.1,5.5,5.3
					l0.1,0.1l0.2,0c5.4-1.3,13.5-2,15.3-2v-10.2c-3.4,0-8.7,0.7-10,0.9v-26.1h2.7c1.5,9.9,14.8,31.3,27.1,37.8l8.5-8.5
					c-7.2-4.5-12-10-12.7-10.9c6.5-4.3,11.2-7.7,11.3-7.7l0.2-0.2l-6.3-9.3L-204.7,413.4z M-235.2,393.9h22.8v7.4h-22.8V393.9z
					 M-212.4,384.9h-22.8v-7.2h22.8V384.9z"/>
				<path d="M-264.5,364.9h-11.3c0,0-0.7,14.4-9,29.8l6.4,9h5.3v7.3h-10.3v11.3h10.3v22l5.2,5.4l0.2,0c2.4-0.5,10.4-1.7,17.2-2v-9.7
					c-5.4,0-10.4,0.5-11.4,0.6v-16.3h11.6v-11.3h-11.6v-7.3h10.1v-11.3h-19.3c1-2.2,1.8-4.4,2.5-6.5h18.4v-11.3h-15.5
					C-264.6,368.9-264.5,364.9-264.5,364.9z"/>
			</g>
			<g>
				<path d="M-418.5,364.9h-13.3c0,0,1.7,5,2.4,9.8h-34.5c0,0,0,12.2,0,37.3c-0.2,7.8-1.6,19.6-11.1,30.3l9.3,7.4
					c14.3-16.4,13.9-35.4,13.9-43.2c0-9.4-0.1-20.5-0.1-20.5h62.7v-11.2h-27C-417,369.2-418.5,364.9-418.5,364.9z"/>
			</g>
			<g>
				<path d="M-323.1,429.6c7.2-6.8,13.6-16.2,16.6-24.5l-6.7-7.2h-33.9c0.7-1.8,2.1-5,2.7-6.7h47v-11.2h-8.3
					c-1.8-7.7-1.6-6.9-4.3-15h-12.4c0,0,3.4,9.3,4.6,15h-23.4c1.8-7.9,1.9-15,1.9-15h-11.4c0,0,0,7.2-2.1,15h-11
					c2.4-8.9,2.3-15,2.3-15h-11.3c0,0,0,7.4-4,18.8l-0.1,0.2l5.6,7.3h15c-3.5,9.5-10.5,24.8-26.6,40.5l7.8,8
					c10.3-10.1,16.6-19,21.3-27.2c1.7,3.6,4.6,8.4,8.9,13.4c1,1.2,2,2.3,3,3.3c-8.3,5.1-17,7.6-26.9,9.4l4.7,11
					c12.9-2.4,23.8-7.2,31.4-12.4c8.8,6.4,19.7,10.2,32,12.4l4.1-11.1C-306.3,436.9-315.8,434.2-323.1,429.6z M-342.7,409.1h21.7
					c-1.8,3.6-8.2,11.1-11.3,13.5C-335.4,419.7-340.7,412.9-342.7,409.1z"/>
			</g>
			<g>
				<path d="M-180.4,398.1c10-4.8,21.1-22.3,21.5-33.2h-11.3c-0.7,9.7-10.9,20.7-15.6,23.4L-180.4,398.1z"/>
				<path d="M-164.4,386.4c-2.1,11.6-15.5,25.1-23.2,28.6l4.7,10.2c3.7-1.7,7.2-5,10-7v31.3h11.3V407c3.8-5.5,7.5-12.2,8.5-20.5
					H-164.4z"/>
				<rect x="-148" y="367.7" width="43.6" height="11.7"/>
				<path d="M-101.6,393.3H-151v11.3h29.1v33.3c0,0-10.3-1-18.7-0.6v10.7c10.6-0.1,30.4,1.7,30.4,1.7v-45h8.7V393.3z"/>
			</g>
		</g>
		<g>
			<path d="M-14.6,449.5c-11.5,0-21.8-4.1-29.1-11.4c-7.4-7.6-11.4-18.2-11.3-30.7c0-12.5,3.9-23.1,11.4-30.8
				c7.3-7.5,17.6-11.6,29-11.6c10.3,0,19.3,2.8,26.2,7.1l-4.1,11.7c-7.5-4.9-13.2-7.2-22.1-7.2c-8.2,0-15.1,2.8-20,8
				c-5,5.4-7.6,13.1-7.6,22.3c0,9.3,2.6,17.1,7.7,22.6c5,5.4,11.9,8.3,20.1,8.3c8.8,0,16.3-3.3,23-8.5l2.2,13.1
				C3.6,446.9-5.2,449.5-14.6,449.5L-14.6,449.5z"/>
			<path d="M59.9,449.5c-11.5,0-21.8-4.1-29.1-11.4c-7.4-7.6-11.4-18.2-11.4-30.7c0-12.5,3.9-23.1,11.4-30.8
				c7.3-7.5,17.6-11.6,29-11.6c10.8,0,20.6,3.1,27.5,7.4l-4.3,11.8c-7.2-4.6-14.9-7.6-23.2-7.6c-8.2,0-15.1,2.8-19.9,8
				c-5,5.4-7.6,13.1-7.6,22.3c0,9.3,2.7,17.1,7.7,22.6c5,5.4,11.9,8.3,20.1,8.3c6.7,0,12.5-2,16.1-3.6v-17h-22v-12h34.5v36.2
				C79.4,447.1,67.5,449.4,59.9,449.5L59.9,449.5z"/>
			<path d="M105.9,448.4v-82.2h27.6c9.5,0,16.9,2.1,21.9,6.2c4.7,3.8,7.1,9.4,7.1,16.2c0.1,7.3-3.8,13.3-10.8,17l-0.8,0.4l0.8,0.3
				c8.5,3.3,13.4,10,13.3,18.4c0,7.3-2.6,13.2-7.5,17.3c-5.3,4.3-13.1,6.5-23.3,6.5H105.9z M118.9,436.2h16.4c5.6,0,10-1,12.8-3
				c2.7-2,3.9-4.6,4-8.5c-0.1-4.1-1.6-6.8-5-8.8c-3.1-1.7-7.7-2.7-13.3-2.7h-14.8V436.2z M118.9,401.3h13.8c5.4,0,9.7-1.2,12.6-3.3
				c2.7-2.1,4.1-4.9,4.2-8.6c-0.1-3.6-1.3-6.2-3.7-8.1c-2.6-1.9-6.5-3-11.4-3h-15.5V401.3z"/>
		</g>
	</g>
</g>
</svg>
