<?xml version="1.0" encoding="utf-8"?>
<!-- Generator: Adobe Illustrator 19.0.0, SVG Export Plug-In . SVG Version: 6.00 Build 0)  -->
<svg version="1.1" id="图层_1" xmlns="http://www.w3.org/2000/svg" xmlns:xlink="http://www.w3.org/1999/xlink" x="0px" y="0px"
	 viewBox="0 0 1024 1024" style="enable-background:new 0 0 1024 1024;" xml:space="preserve">
<g>
	<path d="M630.8,180.8L630.8,180.8c13.9,9,32.5,5,41.5-8.9l38.8-60.1c9-13.9,5-32.5-8.9-41.5l0,0c-13.9-9-32.5-5-41.5,8.9
		l-38.8,60.1C612.9,153.2,616.9,171.8,630.8,180.8z"/>
	<path d="M856.2,150.6c11.5-11.9,11.1-30.9-0.9-42.4s-30.9-11.1-42.4,0.9l-49.6,51.6c-11.5,11.9-11.1,30.9,0.9,42.4l0,0
		c11.9,11.5,30.9,11.1,42.4-0.9L856.2,150.6z"/>
	<path d="M924.4,238L924.4,238c-6.7-15.1-24.5-21.9-39.6-15.2L819.4,252c-15.1,6.7-21.9,24.5-15.2,39.6l0,0
		c6.7,15.1,24.5,21.9,39.6,15.2l65.4-29.1C924.4,270.9,931.2,253.2,924.4,238z"/>
	<path d="M187.3,345.3h-71.6c-10.8,0-18.6,8.8-18.6,18.6V830c0,10.8,8.8,18.6,18.6,18.6h71.6c10.8,0,18.6-8.8,18.6-18.6V363.9
		C205.9,353.1,197.1,345.3,187.3,345.3z"/>
	<path d="M690.6,222.6H329.5c-40.2,0-73.6,33.4-73.6,73.6V885c0,40.2,33.4,73.6,73.6,73.6h361.1c40.2,0,73.6-33.4,73.6-73.6V296.2
		C764.2,256,730.9,222.6,690.6,222.6z M715.2,885c0,13.7-10.8,24.5-24.5,24.5H329.5c-13.7,0-24.5-10.8-24.5-24.5V296.2
		c0-13.7,10.8-24.5,24.5-24.5h361.1c13.7,0,24.5,10.8,24.5,24.5V885z"/>
	<path d="M513.1,354.1c-64.5,0-116.8,52.2-116.8,116.7c0,0,0,0.1,0,0.1c0,64.5,52.3,116.8,116.8,116.8s116.8-52.3,116.8-116.8
		C629.8,406.4,577.6,354.1,513.1,354.1z"/>
</g>
</svg>
