<?xml version="1.0" encoding="utf-8"?>
<!-- Generator: Adobe Illustrator 19.0.0, SVG Export Plug-In . SVG Version: 6.00 Build 0)  -->
<svg version="1.1" id="图层_1" xmlns="http://www.w3.org/2000/svg" xmlns:xlink="http://www.w3.org/1999/xlink" x="0px" y="0px"
	 viewBox="0 0 1024 1024" style="enable-background:new 0 0 1024 1024;" xml:space="preserve">
<style type="text/css">
	.st0{fill-rule:evenodd;clip-rule:evenodd;}
</style>
<g>
	<path class="st0" d="M787.8,67h-38.3c-48.8,0-88.3,39.5-88.3,88.3v713.4c0,48.8,39.5,88.3,88.3,88.3h38.3
		c48.8,0,88.3-39.5,88.3-88.3V155.3C876.1,106.5,836.6,67,787.8,67z"/>
	<path class="st0" d="M274.5,67h-38.3c-48.8,0-88.3,39.5-88.3,88.3v713.4c0,48.8,39.5,88.3,88.3,88.3h38.3
		c48.8,0,88.3-39.5,88.3-88.3V155.3C362.8,106.5,323.3,67,274.5,67z"/>
</g>
</svg>
