<?xml version="1.0" encoding="utf-8"?>
<!-- Generator: Adobe Illustrator 19.0.0, SVG Export Plug-In . SVG Version: 6.00 Build 0)  -->
<svg version="1.1" id="图层_1" xmlns="http://www.w3.org/2000/svg" xmlns:xlink="http://www.w3.org/1999/xlink" x="0px" y="0px"
	 viewBox="-319 217 320 128" style="enable-background:new -319 217 320 128;" xml:space="preserve">
<style type="text/css">
	.st0{fill:#003F7B;}
</style>
<path class="st0" d="M-233.7,291.3c0,0-2.2,8.6-6.1,14.7l-0.3,0.3l3.5,2.6l0.3-0.3c4.2-6.4,6.4-15,6.4-15v-0.3l-3.8-2.2
	C-233.7,291-233.7,291.3-233.7,291.3z M-234,289.7l0.3,0.3l2.9-2.6v-0.3c-3.5-4.2-7-6.1-7.4-6.4h-0.3l-2.9,2.6l0.3,0.3
	C-241.1,283.3-236,286.8-234,289.7 M-206.2,276.6c-1.9-2.9-4.8-4.8-4.8-4.8l-0.3-0.3l-3.2,2.2l0.3,0.3c0,0,1.6,1.6,2.9,2.6h-4.2
	v-5.4h-4.2v5.4h-11.2v0.6c-2.6-2.6-5.1-4.2-5.1-4.2h-0.3l-3.2,2.6l0.3,0.3c0,0,4.5,3.2,7,6.1l0.3,0.3l2.2-1.6h9.9v2.2h-9.3v26.6h3.8
	v-9.6h5.4v8.6h4.2v-8.6h5.4v5.4c0,0-0.6,0.3-3.5,0.3h-0.6l1.3,3.8h2.6c1,0,1.9-0.3,2.6-1c0.6-0.6,1.3-1.6,1.3-2.6v-23h-9.3v-2.2
	h12.5v-3.8L-206.2,276.6z M-219.6,295.8h-5.4v-2.9h5.4V295.8z M-219.6,289.1h-5.4v-2.6h5.4V289.1z M-210,295.8h-5.4v-2.9h5.4V295.8z
	 M-210,289.1h-5.4v-2.6h5.4V289.1z M-173.9,300.3c2.2-2.6,3.8-5.4,5.4-9v-2.9h-13.8c0.3-0.6,0.6-1.9,1-2.6h18.2V282h-17.6
	c0.3-1.6,1-4.5,1.3-8.6v-0.3l-3.8-1v0.3c-0.3,4.2-1,7.4-1.6,9.6h-5.8c0.3-1,2.9-7.4,2.9-7.4l-3.5-1.9l-3.8,9.9v3.2h9.3
	c-1.9,8.3-6.7,14.7-13.4,18.9l-0.3,0.3l2.9,3.2l0.3-0.3c6.1-4.5,9.9-9.3,12.2-14.7c1.3,2.6,3.2,5.1,4.8,7c-2.9,2.6-7,4.5-12.2,5.8
	h-0.6l2.2,3.2h0.3c5.1-1,9.3-3.2,12.8-6.4c2.9,2.2,5.1,3.5,6.4,4.2c1.9,1,3.8,1.6,6.1,2.2h0.3l2.6-3.2h-0.6
	C-166.2,304.7-170.4,302.8-173.9,300.3 M-176.4,297.4c-1.3-1.3-2.6-3.2-3.8-5.8h7.7C-173.6,293.9-174.8,295.8-176.4,297.4
	 M-146,286.8h4.5V283h-8c0.3-1,0.6-1.6,1-2.2h7.4v-3.8h-6.4c0.6-2.2,0.6-3.8,0.6-4.2v-0.3l-3.5-1v0.3c-0.6,7-2.9,12.2-6.7,15.4
	l-0.3,0.3l2.6,2.9h-0.3v3.8h5.4v9.6c0,1,0,1.6-0.3,1.9l-0.3,0.3l2.2,3.5l7.4-3.8v-3.8c0,0-4.2,1.9-5.1,2.6v-9.6h5.1v-4.5h-5.1
	L-146,286.8L-146,286.8z M-149.9,290.3h-5.1c1.3-1.3,2.6-2.2,3.2-3.2h1.6v3.2H-149.9z M-127.2,299.9c2.2-1.3,4.2-3.2,5.8-5.4
	l0.3-0.3l-2.9-2.2h0.6v-18.6h-17v30.7c0,1-0.3,1.3-0.3,1.6l-0.3,0.3l1.9,3.5l9-3.2v-3.8c0,0-5.1,1.9-6.1,1.9v-12.2h2.6
	c0.3,3.5,1.6,7,3.5,9.9c1.9,3.2,4.8,5.1,8.6,6.1h0.3l2.6-3.5h-0.6C-123,303.8-125.6,302.2-127.2,299.9 M-136.4,277.2h9.3v3.5h-9.3
	V277.2z M-136.4,284.3h9.3v3.8h-9.3V284.3z M-128.8,296.7c-0.6-1.3-1-2.9-1.3-4.8h5.8C-125.9,294.5-127.2,295.8-128.8,296.7
	 M-109.9,284.9c3.2-2.2,6.7-6.1,10.2-11.2l0.3-0.3l-3.2-2.2l-0.3,0.3c-2.9,4.5-6.4,8-10.2,10.9l-0.3,0.3L-109.9,284.9L-109.9,284.9z
	 M-98.4,284.3v3.8h10.6v16.6c0,0.3,0,0.3-0.3,0.3c0,0-0.6,0.3-1.9,0.3h-4.5l1.3,3.8h2.6c1.9,0,3.2,0,4.2-0.3c1-0.3,1.6-0.6,2.2-1.3
	c0.6-0.6,0.6-1.6,0.6-2.6v-17h7v-3.8H-98.4L-98.4,284.3z M-97.7,283l-3.2-2.2l-0.3,0.3c-3.8,5.8-8,9.6-12.5,12.2l-0.3,0.3l2.9,3.2
	c0,0,3.2-2.2,4.2-2.9v15h3.8V290C-100.3,286.8-98.7,284.6-97.7,283L-97.7,283z M-79.2,278.2v-3.8h-18.2v3.8H-79.2L-79.2,278.2z
	 M-167.8,281.4l0.3,0.3l3.2-2.2l-0.3-0.3c-3.2-4.5-6.7-7-6.7-7h-0.3l-3.2,2.2l0.3,0.3C-174.5,274.3-170,278.2-167.8,281.4
	 M-108.3,337.4l-0.3-0.6c-0.6-0.6-12.8-18.6-13.8-19.8h-3.8v23.7h2.6v-20.5l0.3,0.6c0.6,0.6,12.8,18.6,13.8,19.8h3.5v-23.7h-2.6
	v20.5H-108.3z M-95.5,327.8c0-0.3,9.6-9.3,11.8-11.2h-3.5c-1,0.6-10.9,9.9-11.2,10.6l-0.6,0.3v-10.9h-2.6v23.7h2.6v-12.5l0.3,0.3
	c0.3,0.6,10.9,11.2,11.8,12.2h3.8C-85.2,338.3-95.5,327.8-95.5,327.8 M-227,327.5c-2.9-1-5.4-1.6-5.4-4.8c0-1.6,1-4.2,5.1-4.2
	c1.9,0,3.5,0.6,4.5,1.9c0,0,1.9-1.6,2.2-1.9c-1.6-1.6-3.5-2.6-6.4-2.6c-5.8,0-8,3.8-8,6.4c0,5.1,3.8,6.4,7,7.4
	c2.6,1,5.1,1.6,5.1,4.2c0,3.2-3.2,4.5-5.1,4.5c-2.2,0-4.2-1-5.1-2.6c-0.3,0.3-1.9,1.6-2.2,1.9c1.6,1.9,4.2,2.9,7.4,2.9
	c4.8,0,8-2.9,8-7.4C-220.6,329.4-223.8,328.4-227,327.5 M-208.8,316.9h-8.3v23.7h2.9v-10.9h5.8c6.7,0,7.4-4.5,7.4-6.4
	C-201.1,321.4-202,316.9-208.8,316.9 M-209.7,327.5h-4.5v-8.6h4.8c1.3,0,5.4,0,5.4,4.2C-204,327.5-208.1,327.5-209.7,327.5
	 M-190.5,316.9h-8.3v23.7h7.7c3.8,0,7.4-1.3,9.6-3.5s3.2-5.1,3.2-8.3C-178,327.5-178.4,316.9-190.5,316.9 M-191.5,338h-4.5v-18.9
	h5.4c9.6,0,9.9,8.3,9.9,9.3C-180.9,335.1-186.4,338-191.5,338 M-157.9,327.8c2.6-1,3.8-2.9,3.8-5.1c0-3.5-2.6-5.8-7-5.8h-8v23.7h8
	c4.8,0,8.3-2.6,8.3-6.4C-152.8,331-155,327.8-157.9,327.8 M-166.5,318.8h5.4c3.2,0,4.2,1.9,4.2,3.8c0,2.6-1.9,3.8-4.8,3.8h-4.8
	C-166.5,326.5-166.5,318.8-166.5,318.8z M-161.1,338.3h-5.1v-9.3h5.1c3.5,0,5.4,1.6,5.4,4.8C-155.6,338-159.8,338.3-161.1,338.3
	 M-141.6,316.9c0,0.3-10.2,23-10.6,23.7h3.2c0-0.3,2.6-6.1,2.6-6.1h12.2c0,0,2.2,5.8,2.6,6.1h3.2c-0.3-0.6-9.9-23.4-10.2-23.7
	H-141.6L-141.6,316.9z M-145.4,332.3l5.1-12.5l5.1,12.5H-145.4z"/>
<g>
	<path class="st0" d="M-137.8,187.8c9.5-7.6,20-7.2,23.8-6.7c-1.4-4.3-8.1-18.1-27.2-18.1c-11,0-18.1,5.7-21.9,10.5
		c-4.8,5.7-6.2,12.4-6.2,16.2c-1.4,16.7-10.5,24.8-11.4,25.8c-10,8.1-20,7.2-23.8,6.2c1.9,4.3,8.6,18.6,27.7,18.1
		c7.6-0.5,14.3-3.3,20-9.1c6.2-6.2,7.6-16.2,8.1-19.1C-147.3,197.8-140.6,190.1-137.8,187.8"/>
	<path class="st0" d="M-89.6,160.6c0-3.3-2.4-5.2-2.4-5.2l-14.8-11.4c0,0-2.9-2.4-2.9,1.4V192c0,3.3-1,13.8-10,21.5
		c-11,9.1-22.4,8.6-26.2,7.6c1.9,4.3,10,18.1,28.6,18.1c16.7,0,28.1-14.8,28.1-28.6v-50.1H-89.6z"/>
	<path class="st0" d="M-198.3,188.7c11-9.1,22.4-8.6,26.2-7.6c-1.9-4.3-10-18.1-28.6-18.1c-16.7,0-28.1,14.8-28.1,28.6v51.5
		c0,3.3,2.4,5.2,2.4,5.2l14.8,11.4c0,0,2.9,2.4,2.9-1.4v-48.2C-207.9,206.8-207.4,196.3-198.3,188.7"/>
</g>
</svg>
