<?xml version="1.0" encoding="utf-8"?>
<!-- Generator: Adobe Illustrator 19.0.0, SVG Export Plug-In . SVG Version: 6.00 Build 0)  -->
<svg version="1.1" id="图层_1" xmlns="http://www.w3.org/2000/svg" xmlns:xlink="http://www.w3.org/1999/xlink" x="0px" y="0px"
	 viewBox="32 -232 1024 1024" style="enable-background:new 32 -232 1024 1024;" xml:space="preserve">
<path d="M744.3,680.5V458h89V280h-89V146.5h89v-89h-89C729.2-11.1,695.8-43.7,631-71.8c0-1-20.2-3.1-20.2-4.2v-89H477.3v89
	c0,1-24.1,3.1-24.1,4.2C388.3-43.7,358.8-11,343.8,57.5h-89v89h89V280h-89v178h89v222.5h-89V725h578.5v-44.5H744.3z M343.8,413.5
	h-44.5v-89h44.5V413.5z M521.8,636h-89V191h89V636z M521.8-76v-44.5h44.5V-76H521.8z M655.3,636h-89V191h89V636z M744.3,324.5h44.5
	v89h-44.5V324.5z"/>
</svg>
