<?xml version="1.0" encoding="utf-8"?>
<!-- Generator: Adobe Illustrator 19.0.0, SVG Export Plug-In . SVG Version: 6.00 Build 0)  -->
<svg version="1.1" id="图层_1" xmlns="http://www.w3.org/2000/svg" xmlns:xlink="http://www.w3.org/1999/xlink" x="0px" y="0px"
	 viewBox="0 0 1024 1024" style="enable-background:new 0 0 1024 1024;" xml:space="preserve">
<path d="M771.2,902.8h-61.9V645.8H763c14.8,0,27.1-12.3,27.1-27.1V478c0-14.8-12.3-27.1-27.1-26.6l0,0h-53.7V372
	c2.6-0.5,5.6-1.5,7.7-3.6h34.3c14.8,0,27.1-12.3,27.1-27.1c0-14.8-12.3-27.1-27.1-27.1l0,0h-26.1c-14.8-68.6-61.4-125.9-125.4-154
	c0-1,0-1.5,0-2.6V94.1c0-14.8-12.3-27.1-27.1-27.1H451.4c-14.8,0-27.1,12.3-27.1,27.1v63.5c0,1,0,1.5,0,2.6
	c-64,28.1-110.5,85.5-125.4,154h-26.1c-14.8,0-27.1,12.3-27.1,27.1c0,14.8,12.3,27.1,27.1,27.1H307c2,1.5,5.1,3.1,7.7,3.6v79.3
	h-53.2c-14.8,0-27.1,11.8-27.1,26.6l0,0v140.7c0,14.8,12.3,27.1,27.1,27.1h53.7v256.9h-61.9c-14.8,0-27.1,12.3-27.1,27.1
	c0,14.8,12.3,27.1,27.1,27.1h517.4c14.8,0,27.1-12.3,27.1-27.1C797.8,915,786.1,902.8,771.2,902.8z M735.9,504.6v87h-27.1v-87H735.9
	z M478.5,120.7h68.1v23.5c-22.5-3.6-45.5-3.6-68.1,0V120.7z M400.7,239.5c66-61.9,169.9-57.8,231.3,8.2c17.4,18.9,30.2,41.5,37.4,66
	H354.6C363.3,285.5,378.7,259.9,400.7,239.5z M288.1,591.6v-87h27.1v87H288.1z M369.5,902.8V367.9h286.1v534.8H369.5z M456.5,421.7
	c-14.8,0-27.1,12.3-27.1,27.1v375.1c0,14.8,12.3,27.1,27.1,27.1c14.8,0,27.1-12.3,27.1-27.1V448.8
	C483.1,434,471.3,421.7,456.5,421.7z M568,421.7c-14.8,0-27.1,12.3-27.1,27.1v375.1c0,14.8,12.3,27.1,27.1,27.1s27.1-12.3,27.1-27.1
	V448.8C595.2,434,582.9,421.7,568,421.7z"/>
</svg>
