<?xml version="1.0" encoding="utf-8"?>
<!-- Generator: Adobe Illustrator 19.0.0, SVG Export Plug-In . SVG Version: 6.00 Build 0)  -->
<svg version="1.1" id="图层_1" xmlns="http://www.w3.org/2000/svg" xmlns:xlink="http://www.w3.org/1999/xlink" x="0px" y="0px"
	 viewBox="0 0 1024 1024" style="enable-background:new 0 0 1024 1024;" xml:space="preserve">
<g>
	<path d="M539.8,606.2V320h-55.6v286.2c-44.1,12.2-76.5,52.6-76.5,100.5c0,57.5,46.8,104.3,104.3,104.3s104.3-46.8,104.3-104.3
		C616.3,658.8,583.9,618.4,539.8,606.2z"/>
	<path d="M651.1,499.6V206.1C651.1,129.3,588.8,67,512,67s-139.1,62.3-139.1,139.1v293.6c-67,44.7-111.3,120.5-111.3,207.1
		C261.7,844.9,373.8,957,512,957s250.3-112.1,250.3-250.3C762.3,620.1,718,544.3,651.1,499.6z M512,894.4
		c-103.5,0-187.7-84.2-187.7-187.7c0-73.4,42.7-136.4,104.3-167.3v-11.8v-55.9v-17.1V206.1c0-46,37.4-83.4,83.4-83.4
		s83.4,37.4,83.4,83.4v248.6v17.1v55.9v11.8c61.5,30.8,104.3,93.9,104.3,167.3C699.7,810.2,615.5,894.4,512,894.4z"/>
</g>
</svg>
