<?xml version="1.0" encoding="utf-8"?>
<!-- Generator: Adobe Illustrator 19.0.0, SVG Export Plug-In . SVG Version: 6.00 Build 0)  -->
<svg version="1.1" id="图层_1" xmlns="http://www.w3.org/2000/svg" xmlns:xlink="http://www.w3.org/1999/xlink" x="0px" y="0px"
	 viewBox="0 0 1024 1024" style="enable-background:new 0 0 1024 1024;" xml:space="preserve">
<g>
	<path d="M513.2,583.3c2.9-4.8,5.7-9,8.1-13.8c11.4-19.5,29-28.1,45.7-26.2c-11.9-19.5-26.2-37.6-42.8-54.3
		c-87.5-87.6-87.5-228.6,0-314.4c12.8-12.9,12.8-33.8,0-48.1c-12.8-12.9-33.8-12.9-48,0c-55.2,55.2-84.7,127.2-84.7,204.3
		c0,77.6,29.5,149.6,84.7,204.3C490.8,549.4,503.2,565.6,513.2,583.3z"/>
	<path d="M199.7,175.1c12.8-12.9,12.8-33.8,0-48.1c-12.8-12.9-33.8-12.9-48,0C96.5,182.2,67,254.1,67,331.3
		c0,77.2,29.5,149.6,84.7,204.3c42.8,40.5,65.2,97.2,65.2,156.2S194.5,807.6,152.1,850c-12.8,12.9-12.8,33.8,0,48.1
		c7.1,7.1,15.7,10,23.8,10c8.1,0,17.1-2.9,23.8-10c55.2-55.2,84.7-127.2,84.7-204.3s-29.5-149.6-84.7-204.3
		C112.2,401.8,112.2,260.8,199.7,175.1z"/>
	<path d="M872.3,488c-42.3-42.4-64.7-97.2-64.7-158.1c0-59.1,22.4-115.7,64.7-158.1c12.8-12.9,12.8-33.8,0-48.1
		c-12.8-12.9-33.8-12.9-48,0c-55.2,55.2-84.7,127.2-84.7,204.3s29.5,149.6,84.7,204.3c88,89.1,88,230,0.5,316.3
		c-12.8,12.9-12.8,33.8,0,48.1c7.1,7.1,15.7,10,23.8,10c8.6,0,17.1-2.9,23.8-10c55.2-55.2,84.7-127.2,84.7-204.3
		S927.5,542.8,872.3,488z"/>
	<path d="M761,852.4c-50.9-88.6-102.7-176.7-154.6-264.8c-18.6-31.4-54.2-31.4-72.8,0c-53.8,89.1-106.6,178.6-159.8,267.7
		c-7.1,12.4-12.8,25.2-5.2,39.5c8.1,14.8,22.4,15.2,36.6,15.2h340.1c14.3-0.5,25.2-10.5,24.3-24.8
		C769.1,874.3,766.7,861.9,761,852.4z M566.9,861.4c-14.3,0-25.2-11-25.2-25.2c0-13.8,10.9-24.8,25.2-24.8
		c14.7-0.5,25.2,10.5,25.2,24.8C592.2,850.5,581.2,861.4,566.9,861.4z M593.1,712.8c0,16.2,0,32.4,0,49.1
		c0,15.2-10.9,26.2-25.2,26.2c-13.8,0-25.2-11.4-25.2-26.7c0-33.3,0-66.7,0-100c0-14.8,10.9-25.7,24.7-25.7s25.2,11.4,25.7,26.2
		C593.1,678.5,593.1,695.7,593.1,712.8z"/>
</g>
</svg>
