<?xml version="1.0" encoding="utf-8"?>
<!-- Generator: Adobe Illustrator 19.0.0, SVG Export Plug-In . SVG Version: 6.00 Build 0)  -->
<svg version="1.1" id="图层_1" xmlns="http://www.w3.org/2000/svg" xmlns:xlink="http://www.w3.org/1999/xlink" x="0px" y="0px"
	 viewBox="0 0 1024 1024" style="enable-background:new 0 0 1024 1024;" xml:space="preserve">
<path d="M561.4,759.2v98.9h173.1c13.7,0,24.7,11.1,24.7,24.7s-11.1,24.7-24.7,24.7h-445c-13.7,0-24.7-11.1-24.7-24.7
	s11.1-24.7,24.7-24.7h173.1v-98.9H116.4c-27.3,0-49.4-22.1-49.4-49.4l0,0V165.9c0-27.3,22.1-49.4,49.4-49.4h791.1
	c27.3,0,49.4,22.1,49.4,49.4l0,0v543.9c0,27.3-22.1,49.4-49.4,49.4l0,0C907.6,759.2,561.4,759.2,561.4,759.2z M820.5,456.9
	L820.5,456.9l0-53.4H589.1l-24.9,74.7L421.8,264.8l-46.2,138.7H215.3v53.4h195.8l24.9-74.7l142.4,213.4l46.3-138.7
	C624.7,456.9,820.5,456.9,820.5,456.9z"/>
</svg>
