<?xml version="1.0" encoding="utf-8"?>
<!-- Generator: Adobe Illustrator 19.0.0, SVG Export Plug-In . SVG Version: 6.00 Build 0)  -->
<svg version="1.1" id="图层_1" xmlns="http://www.w3.org/2000/svg" xmlns:xlink="http://www.w3.org/1999/xlink" x="0px" y="0px"
	 viewBox="0 0 1024 1024" style="enable-background:new 0 0 1024 1024;" xml:space="preserve">
<g>
	<path d="M726.2,837.8c-64.2,44.4-140.5,68.2-218.7,68c-213.9-0.4-387.2-173.7-387.6-387.6c0-181.4,128.7-340.8,306.4-378.8
		c13.9-3.1,22.8-16.8,19.8-30.8c-3.1-13.9-16.8-22.7-30.7-19.8C214.2,131.3,68.7,312,68.7,518.2C68.9,760.5,265.2,956.8,507.5,957
		c88.5,0.3,175.1-26.5,247.9-76.8c11.5-8.3,14.1-24.4,5.8-36C753.2,833.1,737.7,830.2,726.2,837.8z"/>
	<path d="M822.3,760c-13.9,0.9-24.9,12-25.9,25.9c-1,15.3,10.5,28.6,25.9,29.7c15.3,1,28.6-10.5,29.7-25.9c0.1-1.3,0.1-2.5,0-3.8
		C850.9,770.5,837.6,758.9,822.3,760z"/>
	<path d="M877.1,672.2c-13.9,0.9-24.9,12-25.9,25.9c-1,15.3,10.5,28.6,25.9,29.7c15.3,1,28.6-10.5,29.7-25.9c0.1-1.3,0.1-2.5,0-3.8
		C905.8,682.8,892.5,671.2,877.1,672.2z"/>
	<path d="M911.5,576.4c-13.9,0.9-24.9,12-25.9,25.9c-1,15.3,10.5,28.6,25.9,29.7c15.3,1,28.6-10.5,29.7-25.9c0.1-1.3,0.1-2.5,0-3.8
		C940.2,587,926.9,575.4,911.5,576.4z"/>
	<path d="M516.7,67c-14.1,0.2-25.2,11.5-25.2,25.6v413.2c0,14.1,10.7,23,24.7,23h413.2c14.1,0,25.6-10.2,25.8-24.3
		C955.3,263.1,758.8,67,516.7,67z M541.5,479.8v-361c195,12.9,348.7,165,361.7,361H541.5z"/>
</g>
</svg>
