<?xml version="1.0" encoding="utf-8"?>
<!-- Generator: Adobe Illustrator 19.0.0, SVG Export Plug-In . SVG Version: 6.00 Build 0)  -->
<svg version="1.1" id="图层_1" xmlns="http://www.w3.org/2000/svg" xmlns:xlink="http://www.w3.org/1999/xlink" x="0px" y="0px"
	 viewBox="0 0 1024 1024" style="enable-background:new 0 0 1024 1024;" xml:space="preserve">
<g>
	<path d="M533,206.2c0.1-0.1,0.2-0.2,0.3-0.3c11.8-11.6,11.9-30.6,0.3-42.4c-0.1-0.1-0.2-0.2-0.3-0.3c-11.6-11.8-30.6-11.9-42.4-0.3
		c-0.1,0.1-0.2,0.2-0.3,0.3c-5.6,5.7-8.8,13.4-8.9,21.4c0,8,3.1,15.6,8.9,21.4C502.2,217.6,521.2,217.8,533,206.2z"/>
	<path d="M786.1,895.6h-78.9l-82.5-119.9c145.4-47.5,250.9-184.2,250.9-345.1C875.6,230.3,712.3,67,512,67S148.4,229.9,148.4,430.1
		c0,160.9,105.5,297.9,250.9,345.5l-82.6,119.9h-78.9c-15.5,0.9-27.9,13.3-28.9,28.9c-1,17,11.9,31.5,28.9,32.6h548.2
		c15.5-0.9,27.9-13.3,28.9-28.9C816,911.2,803.1,896.6,786.1,895.6z M210.3,430.6c0.3-166.5,135.2-301.4,301.7-301.7
		c166.5,0.3,301.4,135.2,301.7,301.7C813.6,597.1,678.6,732.1,512,732.3C345.4,732.1,210.4,597.1,210.3,430.6z M464.5,790.5
		c15.6,2,31.4,3.2,47.5,3.2c16.1,0,31.9-1.2,47.5-3.2l72,105.1H392.1L464.5,790.5z"/>
	<path d="M700.2,430.1c-0.2-103.9-84.4-188.1-188.2-188.2c-103.9,0.2-188.1,84.4-188.2,188.2C323.9,534,408.1,618.2,512,618.4
		C615.9,618.2,700.1,534,700.2,430.1z M386.1,430.6c0.1-69.5,56.4-125.8,125.9-125.9c69.5,0.1,125.8,56.4,125.9,125.9
		c-0.1,69.5-56.4,125.8-125.9,125.9C442.5,556.4,386.2,500.1,386.1,430.6z"/>
</g>
</svg>
