<?xml version="1.0" encoding="utf-8"?>
<!-- Generator: Adobe Illustrator 19.0.0, SVG Export Plug-In . SVG Version: 6.00 Build 0)  -->
<svg version="1.1" id="图层_1" xmlns="http://www.w3.org/2000/svg" xmlns:xlink="http://www.w3.org/1999/xlink" x="0px" y="0px"
	 viewBox="0 0 1024 1024" style="enable-background:new 0 0 1024 1024;" xml:space="preserve">
<g>
	<path d="M577.9,476c18.2,18.2,56.1,12.3,65.9-10.2c15.6-26.4-21.2-58.3-52-45.3v0C566.5,428.8,557.6,459.8,577.9,476z"/>
	<path d="M626.8,277c34.3,4,69.3,6.9,101.5,18.2c14.1-44.4,58.8-73.4,87.3-110.6c-28-4.3-57-2.7-84.5-9.2
		c-52.5-9.7-99.4-34.5-138.5-65.4c-23.9-16.2-45.6-39.1-77.5-42.8c-28.3-2.3-48.8,17.8-67.5,32.9c-31,27.7-66.7,52.9-109.6,65.6
		c-41.3,14.2-86.1,14.7-129.6,18.4c11.1,39.6,49.9,69.6,56.2,111C382.8,270.7,506.2,267.7,626.8,277z M366,184.7
		c36.6-11.7,67-34.7,93.5-60l0,0c16-14,33.6-32.2,57.8-30.1c27.2,3.3,45.7,24.2,66.1,39.1C617,162,657.3,187,702.1,195.9
		c23.5,5.9,36.6,0.8,60.6,4.7c-24.3,34-30.3,26-42.4,66.6c-27.5-10.3-78.1-21.2-107.4-24.9c-24.4-2-50.1-2.9-76.4-2.9
		c11.1-6.9,20.9-15.7,28.3-25.2c5.1-19,1.7-39,2-58.4l-21,1.8c-17.6-1.9-35.3-1.4-52.9-0.5c-12,0.7-27-4.7-36.3,3.8v0
		c-0.7,8.8,0.4,17.8,1.3,26.6c-7.3,23.3,11.5,40.3,32.5,52.8c-71.3,2.9-144.5,12.1-207.9,26c-5.3-37.8-19.1-23.5-28.7-59.6
		C291.1,203.4,330.7,197.7,366,184.7z"/>
	<path d="M393.5,423.2L393.5,423.2c-26.9,12.4-24.6,50.7,4.1,60.3c23.1,11.2,56.3-5.2,56.7-28C459.4,428.6,419.2,407.5,393.5,423.2z
		"/>
	<path d="M621.1,708.7c-3.1-1.3-6-2.6-8.6-3.8L597,693.6l-8.4-39.1c53.1-22.9,98.2-61.3,116.4-110.7c42.9-15.2,83.2-51.1,78.3-93.6
		c-0.9-27.9-18.6-55.2-46.9-69.3c-3.7-17.3-15.9-34.3-7.4-51.8c-21.1-7.2-43.3-11.8-65.5-15.7c-110.2-17.3-225.1-16.6-334.2,6.1
		c-12.2,2.8-24.2,6.3-36.2,9.6l6.3,13.5c-4.1,12.6-8.7,25.2-12.2,38c-40.5,19.3-55.4,64-42.6,100.7c13.4,28.1,41.8,49.3,73.5,61.6
		c18.2,48.5,61.9,87,114,110.3l-5.9,38.9l-9.6,9.3c-4.7,2.8-9.5,5.1-14.4,7.6c-185,33.9-223,135.7-223,161.3l0.1,1.9
		c4.8,33.9,50.6,56.9,140.1,71.5c67.2,11,141.5,13.3,174.9,13.3h41c33.4,0,107.7-2.4,174.2-13.4c89.2-14.7,133.4-38.4,135-73l0-0.5
		C844.6,844.5,806.6,742.5,621.1,708.7z M343,514.4c-26.8-8.2-54.6-19.5-69.5-42.4c-12.2-14.1-5.5-32.8-1.5-48.4
		c14.1,12.4,40.6,11.2,47.3-7.7c1.8-21.7,2-43.6,6.5-65h0c66.4,37.5,146.4,57.6,224.8,49.2c53.6-6.4,105.4-23.5,151.4-49.3
		c4.2,23.3-1,47.9,8.3,70.4c9.3,14.7,30.2,11.5,44.5,5.7c19.5,36.1-16,74.6-54.9,81.8c-16,1.6-21.3,16-24.8,28
		c-18.1,58.4-77.8,98.3-139.4,115.7c-46.1,9.8-90.3-15-125.6-39C374.4,589.4,354.4,552.4,343,514.4z M704.6,912.6
		c-57.9,9.6-127.3,12.9-169.2,12.9h-41c-41.9,0-111.5-3.4-169.9-12.9c-97.8-16-111.9-37.8-114-43.6c2.4-21,41.8-100.5,197.4-129
		l4.4-0.8l6.3-3.2c4.2-2.1,9-4.5,13.8-7.4l3.2-1.9l19-19.3l2.4-20.5v-24c33.3,12.2,72.2,12.6,106.1,1.5V682h-0.3l6.4,30.1l27.5,19.9
		l2.5,1.2c3.2,1.5,6.6,3.1,10.2,4.6l3,1.2l3.2,0.6c157.7,28.8,196.3,109.9,197.9,129.9C812.9,873.2,804.7,896.1,704.6,912.6z"/>
</g>
</svg>
