<?xml version="1.0" encoding="utf-8"?>
<!-- Generator: Adobe Illustrator 19.0.0, SVG Export Plug-In . SVG Version: 6.00 Build 0)  -->
<svg version="1.1" id="图层_1" xmlns="http://www.w3.org/2000/svg" xmlns:xlink="http://www.w3.org/1999/xlink" x="0px" y="0px"
	 viewBox="0 0 1024 1024" style="enable-background:new 0 0 1024 1024;" xml:space="preserve">
<path id="XMLID_92_" d="M512,927L97,512L512,97l415,415L512,927z M163.3,512L512,860.7L860.7,512L512,163.3L163.3,512z M557.2,338.1
	l-22.6,253.1h-0.1c-1.3,11.5-11.7,19.8-23.2,18.4c-9.7-1.1-17.3-8.8-18.4-18.4h-0.1l-26.9-251c-5.6-25.1,10.3-50,35.4-55.6
	c25.1-5.6,50,10.3,55.6,35.4C558.1,326,558.3,332.1,557.2,338.1L557.2,338.1z M511.3,637.7c23.1,0,41.9,18.8,41.9,41.9
	c0,23.1-18.8,41.9-41.9,41.9c-23.1,0-41.9-18.8-41.9-41.9S488.2,637.7,511.3,637.7L511.3,637.7z"/>
</svg>
