<?xml version="1.0" encoding="utf-8"?>
<!-- Generator: Adobe Illustrator 19.0.0, SVG Export Plug-In . SVG Version: 6.00 Build 0)  -->
<svg version="1.1" id="图层_1" xmlns="http://www.w3.org/2000/svg" xmlns:xlink="http://www.w3.org/1999/xlink" x="0px" y="0px"
	 viewBox="0 0 1024 1024" style="enable-background:new 0 0 1024 1024;" xml:space="preserve">
<g>
	<path d="M96.2,453.6L96.2,453.6c-16.1,0-29.2,13.1-29.2,29.2S80.1,512,96.2,512h145.9c16.1,0,29.2-13.1,29.2-29.2
		s-13.1-29.2-29.2-29.2H96.2z"/>
	<path d="M957,395.3C957,242.2,832.9,118,679.8,118S402.6,242.2,402.6,395.3c0,143.3,108.7,261.2,248.2,275.7c0,0.5-0.2,1-0.2,1.5
		v204.3c0,16.1,13.1,29.2,29.2,29.2c16.1,0,29.2-13.1,29.2-29.2V672.5c0-0.5-0.1-1-0.2-1.5h0C848.3,656.4,957,538.6,957,395.3z
		 M679.8,614.1c-120.9,0-218.9-98-218.9-218.9c0-120.9,98-218.9,218.9-218.9c120.9,0,218.9,98,218.9,218.9
		C898.7,516.1,800.7,614.1,679.8,614.1z"/>
	<path d="M96.2,249.4h233.4c16.1,0,29.2-13.1,29.2-29.2c0-16.1-13.1-29.2-29.2-29.2H96.2C80.1,191,67,204.1,67,220.2
		C67,236.3,80.1,249.4,96.2,249.4z"/>
	<path d="M504.7,701.7H96.2c-16.1,0-29.2,13.1-29.2,29.2C67,747,80.1,760,96.2,760h408.5c16.1,0,29.2-13.1,29.2-29.2
		S520.8,701.7,504.7,701.7z"/>
</g>
</svg>
